<?xml version="1.0" encoding="utf-8"?>
<!-- Generator: Adobe Illustrator 16.2.0, SVG Export Plug-In . SVG Version: 6.00 Build 0)  -->
<!DOCTYPE svg PUBLIC "-//W3C//DTD SVG 1.1//EN" "http://www.w3.org/Graphics/SVG/1.1/DTD/svg11.dtd">
<svg version="1.1" id="Layer_1" xmlns="http://www.w3.org/2000/svg" xmlns:xlink="http://www.w3.org/1999/xlink" x="0px" y="0px"
	 viewBox="0 0 50 50" enable-background="new 0 0 50 50" xml:space="preserve">
<path fill="#FFFFFF" d="M50,9.494c-1.84,0.816-3.816,1.368-5.892,1.615c2.118-1.27,3.744-3.279,4.511-5.675
	c-1.982,1.176-4.178,2.029-6.515,2.489c-1.871-1.994-4.537-3.239-7.487-3.239c-5.665,0-10.258,4.593-10.258,10.258
	c0,0.804,0.09,1.587,0.266,2.338C16.099,16.853,8.54,12.769,3.481,6.562c-0.883,1.515-1.389,3.277-1.389,5.157
	c0,3.56,1.811,6.699,4.563,8.539c-1.681-0.054-3.263-0.515-4.646-1.283c-0.001,0.043-0.001,0.085-0.001,0.129
	c0,4.97,3.536,9.116,8.229,10.059c-0.861,0.234-1.767,0.359-2.703,0.359c-0.661,0-1.303-0.064-1.93-0.184
	c1.305,4.075,5.094,7.041,9.583,7.124c-3.511,2.751-7.934,4.391-12.74,4.391c-0.828,0-1.645-0.048-2.447-0.144
	c4.54,2.911,9.932,4.609,15.725,4.609c18.868,0,29.187-15.631,29.187-29.187c0-0.445-0.01-0.887-0.03-1.327
	C46.886,13.358,48.625,11.552,50,9.494z"/>
</svg>
