<?xml version="1.0" encoding="utf-8"?>
<!-- Generator: Adobe Illustrator 16.0.0, SVG Export Plug-In . SVG Version: 6.00 Build 0)  -->
<!DOCTYPE svg PUBLIC "-//W3C//DTD SVG 1.1//EN" "http://www.w3.org/Graphics/SVG/1.1/DTD/svg11.dtd">
<svg version="1.1" id="Layer_1" xmlns="http://www.w3.org/2000/svg" xmlns:xlink="http://www.w3.org/1999/xlink" x="0px" y="0px"
	 width="164px" height="41px" viewBox="0 0 164 41" enable-background="new 0 0 164 41" xml:space="preserve">
<g>
	<path fill="#FFFFFF" d="M129.663,17.487l-0.246,1.447l-6.812,1.139l0.468-2.18c0.21-0.96,0.713-1.731,1.499-2.304
		c0.795-0.563,1.68-0.855,2.666-0.855c0.961,0,1.619,0.243,1.974,0.706C129.566,15.909,129.719,16.592,129.663,17.487
		 M132.347,15.628c-0.134-0.685-0.396-1.26-0.798-1.743c-0.402-0.486-0.921-0.851-1.569-1.107c-0.644-0.252-1.393-0.383-2.235-0.383
		c-0.888,0-1.74,0.131-2.544,0.383c-0.804,0.256-1.525,0.618-2.156,1.095c-0.633,0.464-1.169,1.042-1.623,1.716
		c-0.444,0.691-0.763,1.457-0.948,2.304l-1.238,5.704c-0.42,1.943-0.163,3.416,0.781,4.415c0.947,0.994,2.436,1.498,4.476,1.498
		c1.08,0,2.107-0.162,3.074-0.491c0.97-0.318,1.944-0.876,2.905-1.66l-1.088-1.777c-0.81,0.603-1.547,1.016-2.222,1.242
		c-0.666,0.225-1.354,0.331-2.056,0.331c-1.193,0-2.1-0.307-2.717-0.917c-0.616-0.62-0.801-1.496-0.553-2.641l0.357-1.642
		l9.545-1.578l0.537-2.484C132.455,17.068,132.486,16.312,132.347,15.628"/>
	<path fill="#FFFFFF" d="M93.658,17.487l-0.239,1.447l-6.823,1.139l0.475-2.18c0.205-0.96,0.709-1.731,1.5-2.304
		c0.793-0.563,1.679-0.855,2.664-0.855c0.963,0,1.616,0.243,1.975,0.706C93.563,15.909,93.712,16.592,93.658,17.487 M96.345,15.628
		c-0.132-0.685-0.399-1.26-0.799-1.743c-0.399-0.486-0.918-0.851-1.568-1.107c-0.648-0.252-1.392-0.383-2.236-0.383
		c-0.892,0-1.733,0.131-2.544,0.383c-0.806,0.256-1.523,0.618-2.158,1.095c-0.631,0.464-1.174,1.042-1.621,1.716
		c-0.446,0.691-0.765,1.457-0.947,2.304l-1.235,5.704c-0.424,1.943-0.167,3.416,0.784,4.415c0.94,0.994,2.433,1.498,4.468,1.498
		c1.078,0,2.102-0.162,3.079-0.491c0.97-0.318,1.938-0.876,2.902-1.66l-1.087-1.777c-0.812,0.603-1.553,1.016-2.217,1.242
		c-0.673,0.225-1.357,0.331-2.061,0.331c-1.196,0-2.103-0.307-2.717-0.917c-0.616-0.62-0.804-1.496-0.557-2.641l0.359-1.642
		l9.549-1.578l0.54-2.484C96.459,17.068,96.475,16.312,96.345,15.628"/>
	<path fill="#FFFFFF" d="M69.565,23.968c-0.102,0.466-0.283,0.904-0.547,1.298c-0.25,0.383-0.571,0.725-0.955,1.023
		c-0.379,0.285-0.792,0.52-1.235,0.685c-0.448,0.171-0.906,0.257-1.374,0.257c-0.803,0-1.424-0.165-1.867-0.48
		c-0.447-0.312-0.59-0.848-0.426-1.607l0.588-2.718l6.417-1.239L69.565,23.968z M73.2,13.62c-0.653-0.821-1.898-1.225-3.721-1.225
		c-0.45,0-0.953,0.053-1.515,0.178c-0.567,0.125-1.136,0.283-1.707,0.478c-0.565,0.182-1.116,0.398-1.648,0.633
		c-0.53,0.237-0.983,0.459-1.359,0.687l0.552,1.983c0.32-0.183,0.702-0.37,1.146-0.581c0.439-0.192,0.902-0.381,1.364-0.547
		c0.474-0.165,0.921-0.304,1.357-0.401c0.429-0.102,0.796-0.153,1.106-0.153c1.075,0,1.774,0.202,2.093,0.604
		c0.324,0.402,0.375,1.136,0.144,2.183l-0.373,1.739l-9.249,1.786l-0.911,4.227c-0.311,1.427-0.113,2.502,0.603,3.202
		c0.716,0.707,1.82,1.061,3.321,1.061c0.959,0,1.848-0.237,2.671-0.723c0.815-0.48,1.523-1.08,2.124-1.788l-0.302,2.208h2.179
		l2.537-11.712C73.993,15.712,73.855,14.435,73.2,13.62"/>
	<path fill="#FFFFFF" d="M34.859,17.879l-1.324,6.103c-0.235,1.072-0.709,1.863-1.429,2.394c-0.725,0.521-1.622,0.778-2.699,0.778
		s-1.886-0.331-2.419-0.999c-0.538-0.663-0.689-1.532-0.456-2.605l1.142-5.28c0.22-1.017,0.747-1.858,1.573-2.534
		c0.817-0.66,1.762-1.002,2.815-1.002c1.099,0,1.896,0.271,2.398,0.792C34.955,16.05,35.086,16.834,34.859,17.879 M37.113,13.732
		c-0.684-0.895-1.952-1.337-3.805-1.337c-0.962,0-1.892,0.21-2.794,0.656c-0.901,0.434-1.667,1.039-2.312,1.824l0.22-2.149h-2.214
		l-6.104,27.033h2.702l2.915-12.298c0.281,0.754,0.772,1.281,1.467,1.586c0.692,0.304,1.476,0.461,2.343,0.461
		c1.803,0,3.268-0.474,4.399-1.426c1.132-0.953,1.89-2.307,2.274-4.083l1.344-6.211C37.943,15.984,37.799,14.633,37.113,13.732"/>
	<path fill="#FFFFFF" d="M115.085,12.395c-0.986,0-1.934,0.237-2.849,0.721c-0.911,0.479-1.656,1.122-2.224,1.924
		c-0.158-1.004-0.528-1.702-1.116-2.073c-0.581-0.387-1.436-0.572-2.562-0.572c-1.008,0-1.919,0.244-2.726,0.738
		c-0.807,0.491-1.536,1.138-2.174,1.942l0.364-2.35h-2.392l-3.566,16.445h2.713l2.156-9.973c0.111-0.49,0.306-1.003,0.602-1.537
		c0.29-0.541,0.642-1.026,1.056-1.467c0.405-0.428,0.864-0.79,1.378-1.087c0.502-0.286,1.015-0.435,1.534-0.435
		c1.005,0,1.621,0.282,1.852,0.844c0.229,0.557,0.244,1.315,0.035,2.271l-2.462,11.383h2.7l2.24-10.339
		c0.121-0.537,0.318-1.052,0.6-1.542c0.283-0.49,0.617-0.928,1.003-1.307c0.388-0.382,0.829-0.683,1.325-0.908
		c0.49-0.222,0.991-0.342,1.516-0.342c1.001,0,1.649,0.229,1.936,0.673c0.292,0.452,0.334,1.144,0.129,2.081l-2.528,11.684h2.669
		l2.607-12.016c0.359-1.682,0.257-2.884-0.318-3.641C118.011,12.771,116.838,12.395,115.085,12.395"/>
	<path fill="#FFFFFF" d="M80.461,26.869C80,26.974,79.54,27.024,79.07,27.024c-0.42,0-0.743-0.174-0.976-0.522
		c-0.229-0.347-0.272-0.854-0.13-1.494l2.233-10.296h4.389l0.423-1.986h-4.383l0.75-3.367h-2.643l-0.744,3.367H75.28l-0.425,1.986
		h2.667l-2.281,10.528c-0.303,1.392-0.23,2.424,0.223,3.108c0.449,0.684,1.411,1.023,2.889,1.023c0.632,0,1.298-0.111,2.005-0.34
		c0.702-0.215,1.353-0.464,1.952-0.734l-0.171-1.976C81.477,26.585,80.912,26.773,80.461,26.869"/>
	<path fill="#FFFFFF" d="M154.502,26.321c-0.669,0.264-1.229,0.45-1.683,0.548c-0.462,0.104-0.923,0.154-1.384,0.154
		c-0.428,0-0.75-0.173-0.981-0.521c-0.228-0.347-0.274-0.854-0.136-1.498l2.235-10.292h4.699l0.428-1.986h-4.699l0.747-3.364h-2.638
		l-0.743,3.364h-2.073l-0.435,1.986h2.045l-2.283,10.528c-0.301,1.392-0.231,2.424,0.223,3.108c0.45,0.684,1.414,1.023,2.887,1.023
		c0.635,0,1.302-0.111,2.004-0.34c0.704-0.215,1.352-0.465,1.954-0.734L154.502,26.321z"/>
	<path fill="#FFFFFF" d="M142.731,12.36c-1.125,0-2.072,0.213-2.838,0.634c-0.779,0.429-1.546,1.064-2.32,1.916l0.3-2.184h-2.462
		l-3.566,16.445h2.676l2.19-10.111c0.115-0.515,0.336-1.033,0.666-1.547c0.331-0.509,0.732-0.978,1.204-1.399
		c0.461-0.426,0.978-0.768,1.537-1.018c0.561-0.26,1.109-0.385,1.648-0.385c1.075,0,1.76,0.302,2.048,0.917s0.321,1.43,0.102,2.46
		l-2.404,11.083h2.672l2.474-11.409c0.376-1.747,0.275-3.082-0.309-4.009C145.766,12.828,144.561,12.36,142.731,12.36"/>
	<path fill="#FFFFFF" d="M18.886,22.622c-0.329,1.507-1.05,2.632-2.161,3.396c-1.114,0.755-2.384,1.136-3.816,1.136
		c-0.699,0-1.339-0.075-1.913-0.254c-0.578-0.162-1.05-0.427-1.428-0.783c-0.377-0.355-0.643-0.832-0.787-1.409
		c-0.14-0.579-0.127-1.271,0.049-2.086l3.373-15.574H9.536L6.162,22.622c-0.464,2.134-0.167,3.81,0.872,5.038
		c1.044,1.229,2.837,1.85,5.365,1.85c1.082,0,2.117-0.139,3.108-0.409c1-0.268,1.893-0.689,2.699-1.257
		c0.805-0.568,1.494-1.279,2.081-2.146c0.589-0.858,1.001-1.879,1.263-3.075l3.377-15.574h-2.673L18.886,22.622z"/>
	<path fill="#FFFFFF" d="M56.553,26.869c-0.455,0.104-0.918,0.155-1.387,0.155c-0.419,0-0.748-0.174-0.975-0.522
		c-0.229-0.347-0.272-0.854-0.134-1.494l2.234-10.296h4.857l0.426-1.986h-4.855l1.069-4.935h-0.015
		c0.394-1.828,0.081-3.338-0.791-4.339c-0.88-1.012-2.236-1.449-3.648-1.449c-1.675,0-3.487,0.589-5.044,1.683
		c-1.555,1.083-2.857,2.75-3.28,4.735c-0.292,1.373-0.18,2.624,0.411,3.975c-0.031,0-0.053,0-0.086,0c-1.639,0-3,0.395-4.089,1.2
		c-1.087,0.809-1.783,1.909-2.083,3.293c-0.144,0.666-0.165,1.241-0.051,1.712c0.105,0.461,0.312,0.888,0.606,1.251
		c0.29,0.38,0.668,0.721,1.129,1.036c0.455,0.303,0.963,0.642,1.516,1c0.437,0.289,0.839,0.544,1.227,0.772
		c0.382,0.219,0.705,0.437,0.962,0.647c0.26,0.219,0.444,0.461,0.562,0.724c0.122,0.269,0.132,0.594,0.051,0.976
		c-0.197,0.917-0.587,1.527-1.173,1.832c-0.575,0.305-1.334,0.452-2.272,0.452c-0.609,0-1.235-0.147-1.869-0.441
		c-0.646-0.286-1.189-0.841-1.645-1.672l-1.977,1.672c0.491,0.854,1.142,1.513,1.926,1.97c0.794,0.457,1.811,0.688,3.054,0.688
		c1.609,0,3.032-0.388,4.248-1.16c1.225-0.769,2.017-1.985,2.373-3.64c0.148-0.676,0.177-1.237,0.092-1.695
		c-0.094-0.461-0.283-0.859-0.576-1.204c-0.285-0.353-0.664-0.674-1.131-0.968c-0.462-0.282-0.996-0.608-1.577-0.964
		c-0.303-0.204-0.646-0.403-1.015-0.609c-0.364-0.205-0.702-0.407-1.005-0.634c-0.305-0.23-0.544-0.475-0.717-0.755
		c-0.18-0.28-0.222-0.608-0.138-0.989c0.166-0.787,0.532-1.353,1.085-1.693c0.559-0.35,1.258-0.522,2.098-0.522
		c0.61,0,1.163,0.166,1.67,0.488c0.51,0.323,0.91,0.687,1.218,1.09l1.857-1.717c-0.133-0.179-0.293-0.356-0.466-0.533
		c-0.229-0.289-0.436-0.552-0.612-0.815l-0.008,0.003c-2.324-3.242-2.98-6.36,0.646-8.272c2.532-1.336,4.253-0.721,5.138,0.021
		c0,0.005,0.006,0.012,0.008,0.012c0.039,0.031,0.075,0.067,0.114,0.092c0.085,0.07,0.176,0.141,0.249,0.221
		c0.412,0.487,0.651,1.248,0.371,2.588l-0.059,0.288h0.008l-0.996,4.586h-2.708l-0.428,1.986h2.669l-2.282,10.528
		c-0.303,1.392-0.226,2.424,0.221,3.108c0.453,0.684,1.412,1.023,2.889,1.023c0.634,0,1.301-0.111,2.008-0.34
		c0.701-0.215,1.351-0.464,1.947-0.734l-0.167-1.976C57.568,26.585,57.009,26.773,56.553,26.869"/>
</g>
</svg>
