<?xml version="1.0" encoding="utf-8"?>
<!-- Generator: Adobe Illustrator 16.2.0, SVG Export Plug-In . SVG Version: 6.00 Build 0)  -->
<!DOCTYPE svg PUBLIC "-//W3C//DTD SVG 1.1//EN" "http://www.w3.org/Graphics/SVG/1.1/DTD/svg11.dtd">
<svg version="1.1" id="Layer_1" xmlns="http://www.w3.org/2000/svg" xmlns:xlink="http://www.w3.org/1999/xlink" x="0px" y="0px"
	 viewBox="0 0 65 65" enable-background="new 0 0 65 65" xml:space="preserve">
<g>
	<defs>
		<rect id="SVGID_1_" x="4.5" y="1.489" width="54.666" height="62.011"/>
	</defs>
	<clipPath id="SVGID_2_">
		<use xlink:href="#SVGID_1_"  overflow="visible"/>
	</clipPath>
	<path clip-path="url(#SVGID_2_)" fill="#FFFFFF" d="M50.312,57.555c-1.023,0.23-2.065,0.341-3.124,0.341
		c-0.95,0-1.683-0.385-2.205-1.167c-0.506-0.788-0.613-1.917-0.296-3.375l5.033-23.219h8.479l0.966-4.466h-8.478l2.408-11.125
		h-0.026c0.882-4.121,0.176-7.531-1.793-9.778c-1.979-2.293-5.039-3.28-8.219-3.277c-3.779,0.006-7.854,1.325-11.371,3.794
		c-3.513,2.446-6.45,6.207-7.395,10.669c-0.664,3.105-0.411,5.918,0.924,8.968c-0.069,0-0.119-0.007-0.193-0.007
		c-3.694,0-6.761,0.903-9.219,2.719c-2.448,1.815-4.021,4.29-4.695,7.413c-0.328,1.511-0.369,2.8-0.119,3.856
		c0.239,1.06,0.701,2.001,1.366,2.836c0.663,0.839,1.506,1.608,2.544,2.314c1.034,0.695,2.176,1.463,3.425,2.271
		c0.977,0.656,1.892,1.226,2.755,1.741c0.868,0.501,1.598,0.993,2.179,1.469c0.577,0.488,1.003,1.025,1.265,1.629
		c0.271,0.6,0.306,1.334,0.121,2.193c-0.446,2.062-1.328,3.439-2.642,4.128c-1.299,0.685-3.012,1.023-5.128,1.023
		c-1.37,0-2.779-0.329-4.218-0.993c-1.447-0.652-2.675-1.906-3.697-3.773L4.5,57.512c1.105,1.925,2.563,3.397,4.336,4.429
		c1.792,1.036,4.08,1.559,6.883,1.559c3.631,0,6.842-0.874,9.59-2.613c2.757-1.743,4.538-4.482,5.345-8.209
		c0.33-1.517,0.392-2.795,0.199-3.823c-0.211-1.037-0.633-1.943-1.288-2.722c-0.653-0.784-1.506-1.495-2.551-2.162
		c-1.054-0.653-2.241-1.38-3.552-2.185c-0.691-0.456-1.459-0.908-2.287-1.372c-0.825-0.453-1.591-0.928-2.271-1.433
		c-0.691-0.509-1.229-1.069-1.621-1.702c-0.401-0.631-0.501-1.373-0.314-2.234c0.383-1.769,1.201-3.038,2.451-3.812
		c1.254-0.788,2.832-1.177,4.73-1.177c1.374,0,2.62,0.371,3.769,1.094c1.139,0.73,2.047,1.554,2.745,2.457l4.174-3.859
		c-0.294-0.408-0.653-0.81-1.045-1.212c-0.516-0.641-0.979-1.239-1.375-1.829l-0.013,0.006c-5.242-7.307-6.723-14.34,1.449-18.656
		c5.714-3.011,9.591-1.617,11.589,0.058c0.004,0.008,0.007,0.014,0.015,0.014c0.09,0.077,0.164,0.149,0.248,0.222
		c0.195,0.153,0.397,0.308,0.565,0.483c0.929,1.107,1.477,2.826,0.839,5.848l-0.134,0.632h0.019l-2.246,10.356h-6.101l-0.968,4.466
		h6.021l-5.146,23.751c-0.682,3.126-0.514,5.454,0.499,7c1.017,1.54,3.184,2.307,6.508,2.307c1.429,0,2.937-0.247,4.526-0.765
		c1.581-0.492,3.054-1.056,4.396-1.66l-0.376-4.455C52.604,56.911,51.337,57.331,50.312,57.555"/>
</g>
</svg>
