<?xml version="1.0" encoding="utf-8"?>
<!-- Generator: Adobe Illustrator 17.1.0, SVG Export Plug-In . SVG Version: 6.00 Build 0)  -->
<!DOCTYPE svg PUBLIC "-//W3C//DTD SVG 1.1//EN" "http://www.w3.org/Graphics/SVG/1.1/DTD/svg11.dtd">
<svg version="1.1" id="Layer_1" xmlns="http://www.w3.org/2000/svg" xmlns:xlink="http://www.w3.org/1999/xlink" x="0px" y="0px"
	 viewBox="0 0 288 90" enable-background="new 0 0 288 90" xml:space="preserve">
<rect x="71.1" y="24.9" fill="none" width="261" height="56.2"/>
<g enable-background="new    ">
	<path fill="#FFFEFE" d="M90.3,73.4V27.1H73.9v-2.2h35.2v2.2H92.7v46.3H90.3z"/>
	<path fill="#FFFEFE" d="M119.2,32.2c-0.5,0-1-0.2-1.5-0.6c-0.4-0.4-0.7-0.9-0.7-1.5s0.2-1.1,0.7-1.5c0.4-0.4,0.9-0.6,1.5-0.6
		c0.6,0,1.1,0.2,1.5,0.6c0.4,0.4,0.6,0.9,0.6,1.5s-0.2,1.1-0.6,1.5C120.3,32,119.8,32.2,119.2,32.2z M118.1,73.4V38.3h2.2v35.1
		H118.1z"/>
</g>
<g enable-background="new    ">
	<path fill="#FFFEFE" d="M174.1,73.4V48.1c0-2.8-0.6-4.9-1.8-6.4c-1.2-1.5-3.1-2.3-5.8-2.3c-1,0-2,0.2-3.1,0.5
		c-1.1,0.3-2.1,0.8-3.1,1.4c-1,0.6-1.9,1.3-2.7,2.1c-0.8,0.8-1.5,1.6-2.1,2.5v27.5h-2.2V48.1c0-2.8-0.6-4.9-1.8-6.4
		c-1.2-1.5-3.1-2.3-5.8-2.3c-1,0-2,0.2-3,0.5c-1,0.4-2,0.8-3,1.5c-1,0.6-1.9,1.3-2.7,2.1c-0.8,0.8-1.6,1.6-2.1,2.5v27.4h-2.2V38.3
		h2.2v5.5c0.3-0.6,0.9-1.2,1.6-2c0.8-0.7,1.6-1.4,2.7-2.1s2.1-1.2,3.3-1.7c1.2-0.5,2.4-0.7,3.7-0.7c1.4,0,2.6,0.2,3.6,0.6
		c1.1,0.4,2,0.9,2.7,1.5c0.8,0.6,1.3,1.3,1.8,2.1s0.8,1.6,0.9,2.4c0.5-0.8,1.1-1.6,1.9-2.4c0.8-0.8,1.7-1.5,2.7-2.1
		c1-0.6,2.1-1.1,3.3-1.5c1.2-0.4,2.4-0.6,3.6-0.6c3.2,0,5.6,0.9,7.1,2.7c1.5,1.8,2.3,4.5,2.3,8v25.3H174.1z"/>
</g>
<g enable-background="new    ">
	<path fill="#FFFEFE" d="M187.4,73.4V24.9h2.2v19.4c1.4-2.1,3.2-3.8,5.4-5c2.2-1.3,4.6-1.9,7.2-1.9c2.4,0,4.5,0.4,6.4,1.3
		c1.9,0.9,3.6,2.1,4.9,3.7c1.4,1.6,2.4,3.5,3.2,5.8c0.8,2.3,1.1,4.8,1.1,7.6s-0.4,5.3-1.1,7.6c-0.8,2.3-1.8,4.2-3.2,5.8
		c-1.4,1.6-3,2.8-4.9,3.7c-1.9,0.9-4.1,1.3-6.4,1.3c-1.4,0-2.7-0.2-4-0.5c-1.3-0.4-2.4-0.8-3.5-1.5c-1.1-0.6-2.1-1.3-2.9-2.1
		c-0.9-0.8-1.6-1.7-2.2-2.6v5.9H187.4z M189.6,65.3c0.5,0.9,1.2,1.8,2.1,2.7s1.9,1.6,3,2.2c1.1,0.6,2.3,1.1,3.6,1.5
		c1.3,0.4,2.6,0.6,4,0.6c2.1,0,4-0.4,5.7-1.3c1.6-0.8,3-2,4.2-3.5c1.1-1.5,2-3.2,2.6-5.2c0.6-2,0.9-4.1,0.9-6.5s-0.3-4.5-0.9-6.5
		c-0.6-2-1.4-3.7-2.6-5.2c-1.1-1.5-2.5-2.7-4.2-3.5c-1.6-0.8-3.5-1.3-5.7-1.3c-1.4,0-2.7,0.2-4,0.6c-1.3,0.4-2.5,0.9-3.6,1.6
		c-1.1,0.7-2.1,1.4-3,2.3s-1.6,1.8-2.1,2.7V65.3z"/>
	<path fill="#FFFEFE" d="M244,74.3c-2.6,0-4.9-0.5-7-1.4c-2.1-0.9-3.9-2.2-5.4-3.9c-1.5-1.6-2.7-3.6-3.6-5.9
		c-0.9-2.3-1.3-4.7-1.3-7.4c0-2.5,0.4-4.9,1.2-7.2s2-4.2,3.5-5.9c1.5-1.6,3.2-3,5.2-3.9c2-1,4.2-1.5,6.6-1.5c2.7,0,5,0.5,7.1,1.5
		c2,1,3.8,2.3,5.1,4c1.4,1.7,2.4,3.7,3.1,5.9c0.7,2.2,1,4.6,1,7v0.7h-30.3c0,2.1,0.4,4.2,1.1,6.1c0.7,1.9,1.7,3.6,3,5
		c1.3,1.4,2.8,2.6,4.6,3.4c1.8,0.8,3.8,1.3,6,1.3c4.8,0,8.9-1.8,12.2-5.3l1.3,1.4c-1.8,1.8-3.8,3.3-5.9,4.3
		C249.5,73.8,246.9,74.3,244,74.3z M257.1,54.6c0-1.7-0.3-3.4-0.8-5.2c-0.6-1.8-1.4-3.4-2.6-4.9c-1.2-1.5-2.6-2.7-4.4-3.6
		c-1.8-0.9-3.8-1.4-6.2-1.4c-2.3,0-4.3,0.5-6,1.4c-1.7,0.9-3.1,2.1-4.3,3.6c-1.2,1.5-2.1,3.1-2.7,4.9c-0.6,1.8-1,3.6-1,5.3H257.1z"
		/>
	<path fill="#FFFEFE" d="M270.1,73.4V38.3h2.2v6.4c1.6-2.1,3.3-3.8,5.3-5.1c2-1.3,4.2-2,6.8-2v2.6c-0.3,0-0.6-0.1-0.9-0.1
		c-0.2,0-0.5,0-0.9,0c-0.9,0-1.9,0.2-2.9,0.6c-1,0.4-2,0.9-3,1.6c-1,0.7-1.8,1.4-2.6,2.2c-0.8,0.8-1.4,1.6-1.7,2.5v26.3H270.1z"/>
</g>
<g>
	<polygon fill="#81DB67" points="43.2,30.9 43.2,71.7 62,71.7 50.7,57.1 57,57.1 46.5,42.6 51.4,42.5 	"/>
	<polygon fill="#213F1C" points="43.2,76.8 43.2,23.2 31.4,39.6 38,39.6 24.7,58.2 31.5,58.2 17.9,76.8 	"/>
</g>
</svg>
