<?xml version="1.0" standalone="no"?>
<!DOCTYPE svg PUBLIC "-//W3C//DTD SVG 1.1//EN" "http://www.w3.org/Graphics/SVG/1.1/DTD/svg11.dtd" >
<svg xmlns="http://www.w3.org/2000/svg">
<metadata></metadata>
<defs>
<font id="SSSocialCircle" >
<font-face font-family="SS Social" units-per-em="2048" ascent="2176" descent="-640" />
<missing-glyph d="M0 2048h2048v-2048h-2048v2048zM1612 1792h-1176l588 -588zM256 1612v-1176l588 588zM436 256h1176l-588 588zM1792 436v1176l-588 -588z" />
<glyph  horiz-adv-x="2048" d="M0 2048h2048v-2048h-2048v2048zM1612 1792h-1176l588 -588zM256 1612v-1176l588 588zM436 256h1176l-588 588zM1792 436v1176l-588 -588z" />
<glyph unicode="&#x2709;" horiz-adv-x="2048" d="M1024 2048q208 0 397.5 -81.5t326.5 -218.5t218.5 -326.5t81.5 -397.5q0 -209 -81.5 -398.5t-218.5 -326.5t-326.5 -218t-397.5 -81q-209 0 -398.5 81t-326.5 218t-218 326.5t-81 398.5q0 208 81 397.5t218 326.5t326.5 218.5t398.5 81.5zM1664 635v612l-640 -479
l-640 479v-612q0 -34 23.5 -57t57.5 -23h1118q34 0 57.5 23t23.5 57zM1024 934l640 479q0 34 -23.5 57t-57.5 23h-1118q-34 0 -57.5 -23t-23.5 -57z" />
<glyph unicode="&#xe310;" horiz-adv-x="2048" d="M1024 2048q208 0 397.5 -81.5t326.5 -218.5t218.5 -326.5t81.5 -397.5q0 -209 -81.5 -398.5t-218.5 -326.5t-326.5 -218t-397.5 -81q-209 0 -398.5 81t-326.5 218t-218 326.5t-81 398.5q0 208 81 397.5t218 326.5t326.5 218.5t398.5 81.5zM683 512q71 0 120.5 50
t49.5 121t-49.5 120.5t-120.5 49.5t-121 -49.5t-50 -120.5t50 -121t121 -50zM1067 512h213q0 209 -103 385.5t-279.5 279.5t-385.5 103v-213q150 0 278 -74.5t202.5 -202.5t74.5 -278zM1451 512h213q0 234 -91.5 447t-246 367.5t-367.5 246t-447 91.5v-213q191 0 365 -74.5
t299.5 -200t200 -299.5t74.5 -365z" />
<glyph unicode="&#xf601;" horiz-adv-x="2048" d="M1024 2048q208 0 397.5 -81t327 -218.5t218.5 -327t81 -397.5t-81 -397.5t-218.5 -327t-327 -218.5t-397.5 -81t-397.5 81t-327 218.5t-218.5 327t-81 397.5t81 397.5t218.5 327t327 218.5t397.5 81zM1198 803l-442 221l442 221q65 -50 146 -50q97 0 166 68.5t69 165.5
t-68.5 166t-166.5 69t-166.5 -69t-68.5 -166v-6l-430 -215q-64 51 -146 51q-97 0 -165.5 -69t-68.5 -166t68.5 -166t165.5 -69q82 0 146 51l430 -215v-6q0 -97 68.5 -166t166.5 -69t166.5 69t68.5 166t-69 165.5t-166 68.5q-81 0 -146 -50z" />
<glyph unicode="&#xf610;" horiz-adv-x="2048" d="M1024 2048q208 0 397.5 -81.5t326.5 -218.5t218.5 -326.5t81.5 -397.5q0 -209 -81.5 -398.5t-218.5 -326.5t-326.5 -218t-397.5 -81q-209 0 -398.5 81t-326.5 218t-218 326.5t-81 398.5q0 208 81 397.5t218 326.5t326.5 218.5t398.5 81.5zM1109 1192v185q0 59 21 87.5
t84 28.5h139l12 242q-71 14 -194 14q-91 0 -161.5 -26t-113 -71t-64 -102t-21.5 -123v-232h-171v-256h171v-640h298v640h240l16 253h-256z" />
<glyph unicode="&#xf611;" horiz-adv-x="2048" d="M1024 2048q209 0 398.5 -81t326.5 -218t218 -326.5t81 -398.5t-81 -398.5t-218 -326.5t-326.5 -218t-398.5 -81t-398.5 81t-326.5 218t-218 326.5t-81 398.5t81 398.5t218 326.5t326.5 218t398.5 81zM1647 1249q78 55 145 150q-81 -34 -168 -46q92 54 125 162
q-84 -50 -182 -71q-85 92 -211 92q-121 0 -205 -85t-84 -207q0 -37 7 -66q-179 9 -335.5 90t-266.5 216q-38 -71 -38 -147q0 -75 34.5 -138.5t93.5 -103.5q-69 0 -131 36v-3q0 -105 66 -185t167 -102q-31 -9 -76 -9q-27 0 -55 5q27 -87 101.5 -141t169.5 -56
q-171 -133 -361 -133q-15 0 -68 5q197 -128 445 -128q155 0 291 49t232.5 131.5t166 189.5t103.5 223.5t34 233.5v38z" />
<glyph unicode="&#xf612;" horiz-adv-x="2048" d="M1024 2048q209 0 398.5 -81t326.5 -218t218 -326.5t81 -398.5t-81 -398.5t-218 -326.5t-326.5 -218t-398.5 -81t-398.5 81t-326.5 218t-218 326.5t-81 398.5t81 398.5t218 326.5t326.5 218t398.5 81zM725 512v725h-256v-725h256zM597 1365q77 0 124 43t47 107
q-2 65 -48 107t-123 42q-76 0 -123 -42t-47 -107q0 -64 46.5 -107t121.5 -43h2zM1664 512v384q0 176 -81 280t-218 104q-76 0 -132 -41.5t-81 -112.5l-9 111h-254l7 -170v-555h256v384q0 79 33.5 125t92.5 46q63 0 96.5 -39t33.5 -132v-384h256z" />
<glyph unicode="&#xf613;" horiz-adv-x="2048" d="M431 510h100q-78 82 -78 161q0 51 28 109h-52q-160 0 -274.5 82.5t-152.5 216.5q-2 -19 -2 -55q0 -306 168 -564q127 50 263 50zM194 1204q19 -148 112.5 -254.5t205.5 -110.5t178 98.5t47 250.5q-19 147 -112.5 251.5t-207.5 108.5q-112 4 -177 -96.5t-46 -247.5z
M877 145q0 32 -7 59q-5 20 -13 38t-23.5 35.5t-26 29.5t-36 31t-38 28t-47 32t-48.5 33q-72 24 -145 24q-145 3 -270 -71q117 -146 278.5 -242t349.5 -128q26 56 26 131zM1024 2048q209 0 398.5 -81t326.5 -218t218 -326.5t81 -398.5t-81 -398.5t-218 -326.5t-326.5 -218
t-398.5 -81h-40q45 88 45 168q0 128 -45.5 212t-160.5 165q-52 37 -102 91.5t-50 91.5q0 47 21 79.5t90 86.5q76 59 120 137.5t44 167.5q0 115 -49 209t-138 128h184l131 95h-583q-110 0 -213 -45t-178 -121q126 264 374 423.5t550 159.5zM1536 1280h256v128h-256v256h-128
v-256h-256v-128h256v-256h128v256z" />
<glyph unicode="&#xf614;" horiz-adv-x="2048" d="M1116 947q-58 219 -125 323.5t-165 104.5q-46 0 -84.5 -16.5t-73 -53.5t-54 -107.5t-19.5 -167.5q0 -89 15.5 -155.5t38 -104t55 -60.5t60.5 -30t59 -7q152 0 293 274zM1024 2048q208 0 397.5 -81t327 -218.5t218.5 -327t81 -397.5t-81 -397.5t-218.5 -327t-327 -218.5
t-397.5 -81t-397.5 81t-327 218.5t-218.5 327t-81 397.5t81 397.5t218.5 327t327 218.5t397.5 81zM1479 464q56 0 102 23.5t72 59t40 72.5t14 69q0 48 -41 48h-80q-41 0 -55 -37q-15 -33 -52 -33q-42 0 -82.5 52.5t-83.5 175.5q116 239 236 653q5 18 -7 27.5t-33 9.5h-121
q-23 0 -35.5 -10t-19.5 -34q-55 -187 -111 -342q-20 57 -42.5 106.5t-58 102.5t-75.5 90.5t-95 62t-117 24.5q-82 0 -152.5 -31.5t-129 -96t-92 -176t-33.5 -258.5q0 -126 25.5 -225t65.5 -160t94.5 -101.5t108 -56t109.5 -15.5q206 0 370 234q106 -234 279 -234z" />
<glyph unicode="&#xf615;" horiz-adv-x="2048" d="M1024 2048q208 0 397.5 -81t327 -218.5t218.5 -327t81 -397.5t-81 -397.5t-218.5 -327t-327 -218.5t-397.5 -81t-397.5 81t-327 218.5t-218.5 327t-81 397.5t81 397.5t218.5 327t327 218.5t397.5 81zM1306 299q51 0 97.5 22t80 61.5t47 95.5t-3.5 123q-40 -36 -73 -48
t-77 -12q-48 0 -88.5 7.5t-78.5 26t-60 31.5t-63 40q-52 32 -83.5 49t-92 38t-128.5 29q75 92 271.5 304t287.5 315q71 80 96.5 119.5t25.5 83.5q0 16 -1.5 29.5t-2.5 18.5l-2 6q-163 -33 -343 -33q-242 0 -326 60q-10 -11 -24.5 -30.5t-38.5 -67.5t-24 -84q0 -96 188 -96
q104 0 218 18q-92 -111 -235 -275t-246 -272q-80 -82 -102.5 -151t-1.5 -139q58 12 110 12q69 0 128 -12.5t111.5 -39t86 -48.5t81.5 -59q99 -73 143 -93q61 -29 123 -29z" />
<glyph unicode="&#xf616;" horiz-adv-x="2048" d="M1024 2048q208 0 397.5 -81t327 -218.5t218.5 -327t81 -397.5t-81 -397.5t-218.5 -327t-327 -218.5t-397.5 -81t-397.5 81t-327 218.5t-218.5 327t-81 397.5t81 397.5t218.5 327t327 218.5t397.5 81zM1697 1042q43 21 69 62.5t26 90.5q0 71 -50 120.5t-121 49.5
q-73 0 -123 -52q-170 117 -399 135l82 251l228 -51q6 -48 42.5 -80t84.5 -32q53 0 90.5 37.5t37.5 90.5t-37.5 90.5t-90.5 37.5q-71 0 -109 -60l-266 59q-16 4 -30.5 -4.5t-19.5 -23.5l-101 -312q-269 -5 -460 -138q-50 52 -123 52q-71 0 -121 -49.5t-50 -120.5
q0 -49 26 -90.5t69 -62.5q-10 -39 -10 -82q0 -133 91.5 -246.5t249 -179t342.5 -65.5t342.5 65.5t249 179t91.5 246.5q0 43 -10 82zM1024 640q150 0 257 85q14 11 16.5 28.5t-8.5 31.5t-28.5 16t-31.5 -9q-86 -67 -205 -67t-205 67q-14 11 -31.5 9t-28.5 -16t-8.5 -31.5
t15.5 -28.5q108 -85 258 -85zM683 1045q0 44 31 75.5t75 31.5t75.5 -31.5t31.5 -75.5t-31.5 -75t-75.5 -31q-43 0 -74.5 31.5t-31.5 74.5zM1365 1045q0 44 -31 75.5t-75 31.5t-75.5 -31.5t-31.5 -75.5t31.5 -75t75.5 -31q43 0 74.5 31.5t31.5 74.5z" />
<glyph unicode="&#xf620;" horiz-adv-x="2048" d="M1024 2048q209 0 398.5 -81t326.5 -218t218 -326.5t81 -398.5t-81 -398.5t-218 -326.5t-326.5 -218t-398.5 -81t-398.5 81t-326.5 218t-218 326.5t-81 398.5t81 398.5t218 326.5t326.5 218t398.5 81zM1451 384v220q-121 -35 -214 -35q-47 0 -77 6.5t-49 18.5t-28.5 38
t-12.5 55.5t-3 80.5v341h341v299h-341v341h-214q-7 -68 -22 -122t-39 -93.5t-50.5 -68.5t-66 -52t-75.5 -38.5t-88 -32.5v-216h216v-443q0 -192 89.5 -288t291.5 -96q96 0 181.5 21.5t123.5 42.5z" />
<glyph unicode="&#xf621;" horiz-adv-x="2048" d="M85 1436l486 -1332q-258 129 -414.5 375.5t-156.5 544.5q0 211 85 412zM1361 57q-161 -57 -337 -57q-147 0 -289 40l301 896zM1626 1358q83 -144 83 -282q0 -41 -12.5 -100.5t-22.5 -93.5t-41 -135l-104 -342l-370 1100l119 10q19 2 29 16t8.5 29.5t-13.5 28t-31 11.5
q-166 -14 -273 -14q-45 0 -112.5 3.5t-112.5 6.5l-45 4q-26 1 -38.5 -19.5t-3.5 -42t35 -23.5q52 -7 109 -10l158 -436l-225 -673l-372 1109l119 10q19 2 29 16t8.5 29.5t-13.5 28t-31 11.5q-166 -14 -273 -14q-40 0 -62 2q142 212 367 336t489 124q194 0 371 -69.5
t316 -195.5h-14q-72 0 -122.5 -56t-50.5 -127q0 -18 2.5 -35t9.5 -36.5t11.5 -31.5t17.5 -35.5t17.5 -32t22 -36.5t21.5 -35zM2048 1024q0 -279 -138.5 -515t-371.5 -372l313 906q78 191 78 367q0 62 -7 105q126 -226 126 -491z" />
<glyph unicode="&#xf622;" horiz-adv-x="2048" d="M1024 2048q209 0 398.5 -81t326.5 -218t218 -326.5t81 -398.5t-81 -398.5t-218 -326.5t-326.5 -218t-398.5 -81t-398.5 81t-326.5 218t-218 326.5t-81 398.5t81 398.5t218 326.5t326.5 218t398.5 81zM1621 811v256q0 35 -25 60t-60 25h-64q-27 0 -45.5 25t-18.5 60
q0 158 -113 271t-271 113h-213q-160 0 -272 -112.5t-112 -271.5v-426q0 -161 111.5 -272.5t272.5 -111.5h426q159 0 271.5 112t112.5 272zM1237 896q36 0 61 -25t25 -60q0 -36 -25 -61t-61 -25h-426q-36 0 -61 25t-25 61q0 35 25 60t61 25h426zM811 1152q-36 0 -61 25
t-25 60q0 36 25 61t61 25h213q35 0 60 -25t25 -61q0 -35 -25 -60t-60 -25h-213z" />
<glyph unicode="&#xf623;" horiz-adv-x="2048" d="M683 939v213q0 99 46.5 187t130 142.5t181.5 54.5q154 0 260.5 -127t106.5 -342q0 -226 -101 -355t-283 -129q-96 0 -176 53.5t-122.5 135t-42.5 167.5zM2048 1024q0 -209 -81 -398.5t-218 -326.5t-326.5 -218t-398.5 -81q-176 0 -341 59v567h16q135 -199 368 -199
q133 0 240 51.5t174.5 140.5t103.5 203.5t36 244.5q0 171 -61 312t-179 226t-272 85q-292 0 -433 -239h-17l-19 213h-185l14 -341v-1159q-215 139 -342 366.5t-127 493.5q0 209 81 398.5t218 326.5t326.5 218t398.5 81t398.5 -81t326.5 -218t218 -326.5t81 -398.5z" />
<glyph unicode="&#xf630;" horiz-adv-x="2048" d="M1024 2048q209 0 398.5 -81t326.5 -218t218 -326.5t81 -398.5t-81 -398.5t-218 -326.5t-326.5 -218t-398.5 -81t-398.5 81t-326.5 218t-218 326.5t-81 398.5t81 398.5t218 326.5t326.5 218t398.5 81zM1024 555q322 0 416 12q127 16 172 74q43 54 49 194q3 53 3 189
q0 219 -13 287q-18 96 -82 133q-68 40 -261 46q-76 3 -284 3q-322 0 -416 -12q-127 -16 -172 -74q-43 -54 -49 -194q-3 -53 -3 -189q0 -219 13 -287q18 -96 82 -133q68 -40 261 -46q76 -3 284 -3zM853 768v512l427 -256z" />
<glyph unicode="&#xf631;" horiz-adv-x="2048" d="M1024 2048q209 0 398.5 -81t326.5 -218t218 -326.5t81 -398.5t-81 -398.5t-218 -326.5t-326.5 -218t-398.5 -81t-398.5 81t-326.5 218t-218 326.5t-81 398.5t81 398.5t218 326.5t326.5 218t398.5 81zM939 341q45 0 117.5 46t152.5 121.5t161.5 176.5t146.5 206t106 215.5
t41 199.5q0 104 -57 167t-144 63q-48 0 -101 -15t-108.5 -47.5t-101 -93.5t-66.5 -143q87 37 140.5 3.5t53.5 -102.5q0 -55 -48 -145t-106.5 -157.5t-87.5 -67.5q-67 0 -125 370q-3 18 -8 57.5t-8.5 66t-11.5 65t-16.5 65t-23.5 56t-32.5 47t-44 29.5t-57.5 12
q-48 0 -109.5 -33.5t-114.5 -82t-99 -96.5t-72 -82l-27 -33l52 -57q57 42 91.5 52.5t51.5 -2.5t28 -50l171 -555q12 -41 29 -78t47 -81t76.5 -70.5t103.5 -26.5z" />
<glyph unicode="&#xf640;" horiz-adv-x="2048" d="M1024 2048q209 0 398.5 -81t326.5 -218t218 -326.5t81 -398.5t-81 -398.5t-218 -326.5t-326.5 -218t-398.5 -81t-398.5 81t-326.5 218t-218 326.5t-81 398.5t81 398.5t218 326.5t326.5 218t398.5 81zM597 683q141 0 241.5 99.5t100.5 241.5q0 140 -100.5 240.5
t-241.5 100.5t-241 -100t-100 -241q0 -142 99.5 -241.5t241.5 -99.5zM1451 683q141 0 241 99.5t100 241.5q0 140 -100.5 240.5t-240.5 100.5q-142 0 -242 -100t-100 -241q0 -142 99.5 -241.5t242.5 -99.5z" />
<glyph unicode="&#xf641;" horiz-adv-x="2048" d="M811 1024q0 -88 62.5 -150.5t150.5 -62.5t150.5 62.5t62.5 150.5t-62.5 150.5t-150.5 62.5t-150.5 -62.5t-62.5 -150.5zM1493 1451q0 17 -12.5 29.5t-29.5 12.5h-128q-18 0 -30.5 -12.5t-12.5 -29.5v-128q0 -18 12.5 -30.5t30.5 -12.5h128q17 0 29.5 12.5t12.5 30.5v128z
M1355 1109q10 -39 10 -85q0 -141 -99.5 -241t-241.5 -100t-241.5 100t-99.5 241q0 46 10 85h-138v-512q0 -17 12.5 -29.5t29.5 -12.5h854q17 0 29.5 12.5t12.5 29.5v512h-138zM1024 2048q208 0 397.5 -81t327 -218.5t218.5 -327t81 -397.5t-81 -397.5t-218.5 -327
t-327 -218.5t-397.5 -81t-397.5 81t-327 218.5t-218.5 327t-81 397.5t81 397.5t218.5 327t327 218.5t397.5 81zM1621 597v854q0 71 -49.5 120.5t-120.5 49.5h-854q-71 0 -120.5 -49.5t-49.5 -120.5v-854q0 -71 49.5 -120.5t120.5 -49.5h854q71 0 120.5 49.5t49.5 120.5z" />
<glyph unicode="&#xf642;" horiz-adv-x="2048" d="M898 1019q-170 180 -284 180q-70 0 -115 -53t-45 -125q0 -77 45 -124t122 -47q68 0 142.5 49.5t134.5 119.5zM1595 1023q0 74 -46 125t-122 51q-39 0 -77.5 -16t-78.5 -49.5t-60.5 -54t-58.5 -60.5q64 -75 132 -122t150 -47q75 0 118 49t43 124zM1024 2048
q208 0 397.5 -81t327 -218.5t218.5 -327t81 -397.5t-81 -397.5t-218.5 -327t-327 -218.5t-397.5 -81t-397.5 81t-327 218.5t-218.5 327t-81 397.5t81 397.5t218.5 327t327 218.5t397.5 81zM1429 640q163 0 263 112.5t100 276.5q0 165 -97 272t-263 107q-65 0 -123.5 -20
t-110 -59t-89.5 -77t-84 -93q-50 59 -86.5 96t-88.5 76t-110.5 58t-125.5 19q-164 0 -261 -109.5t-97 -273.5q0 -168 101.5 -276.5t265.5 -108.5q63 0 117 16.5t103.5 52.5t82 66t83.5 84q11 11 16 17q93 -108 190.5 -172t213.5 -64z" />
<glyph unicode="&#xf650;" horiz-adv-x="2048" d="M2048 1024q0 -209 -81 -398.5t-218 -326.5t-326.5 -218t-398.5 -81q-154 0 -292 43q75 112 105 218l71 282q27 -53 98.5 -90.5t152.5 -37.5q162 0 288.5 91.5t195 251t68.5 358.5q0 114 -47 220t-130 188t-205.5 131t-264.5 49q-141 0 -262.5 -38.5t-206.5 -102.5
t-145.5 -147.5t-89 -173t-28.5 -178.5q0 -139 52.5 -244.5t155.5 -146.5q40 -15 53 26q3 11 21 81q4 20 1 30t-18 27q-66 83 -66 201q0 97 35.5 186t99.5 156.5t160.5 108t209.5 40.5q201 0 312.5 -109.5t111.5 -284.5q0 -147 -40 -270t-115 -197.5t-170 -74.5
q-81 0 -130.5 58t-30.5 138q11 47 35.5 125.5t39.5 137.5t15 100q0 67 -35.5 110.5t-101.5 43.5q-82 0 -139.5 -76.5t-57.5 -188.5q0 -44 8 -84.5t16 -58.5l9 -19q-114 -474 -132 -559q-26 -105 -17 -235q-276 121 -445 374.5t-169 564.5q0 209 81 398.5t218 326.5
t326.5 218t398.5 81t398.5 -81t326.5 -218t218 -326.5t81 -398.5z" />
<glyph unicode="&#xf651;" horiz-adv-x="2048" d="M1024 2048q209 0 398.5 -81t326.5 -218t218 -326.5t81 -398.5t-81 -398.5t-218 -326.5t-326.5 -218t-398.5 -81t-398.5 81t-326.5 218t-218 326.5t-81 398.5t81 398.5t218 326.5t326.5 218t398.5 81zM706 583q121 0 185 77.5t64 192.5q0 184 -211 244q-34 10 -218 69
q-116 35 -116 114q0 52 37 93.5t115 41.5q87 0 159.5 -68t98.5 -181h43v285h-43l-19 -93q-35 45 -95 76t-142 31q-98 0 -164 -58.5t-66 -169.5q0 -192 197 -251l204 -64q79 -25 107 -58.5t28 -88.5q0 -53 -47.5 -94t-123.5 -41q-85 0 -170.5 71t-144.5 228h-43v-342h43
l33 126q45 -57 121.5 -98.5t167.5 -41.5zM1809 1408h26v43h-299v-43h38q42 0 55 -34.5t-5 -86.5l-180 -457l-214 578h135v43h-426v-43h19q53 0 81.5 -21t46.5 -64l267 -726h57l256 664q63 147 143 147z" />
<glyph unicode="&#xf652;" horiz-adv-x="2048" d="M1024 2048q209 0 398.5 -81t326.5 -218t218 -326.5t81 -398.5t-81 -398.5t-218 -326.5t-326.5 -218t-398.5 -81t-398.5 81t-326.5 218t-218 326.5t-81 398.5t81 398.5t218 326.5t326.5 218t398.5 81zM1707 645v955q0 30 -26 50q-23 19 -55 12l-491 -131q-61 -17 -111 -71
q-50 54 -111 71l-491 131q-31 6 -57 -12q-24 -21 -24 -50v-955q0 -22 13 -39.5t35 -22.5l573 -154q9 -111 41 -186t94 -134q0 -2 5 -2h3q4 4 4 7l7 125l83 10q5 0 5 5q2 2 1 4.5t-3 2.5q-49 38 -73.5 76.5t-33.5 93.5l564 152q22 5 35 22.5t13 39.5zM1088 1306
q0 32 24.5 62.5t56.5 37.5l410 111v-822l-491 -133v744zM1515 818v118l-363 -99v-119zM1515 1045v119l-363 -100v-118zM1515 1273v118l-363 -99v-119zM879 1406q32 -7 56.5 -37.5t24.5 -62.5v-744l-491 133v822zM896 718v119l-363 99v-118zM896 946v118l-363 100v-119z
M896 1173v119l-363 99v-118z" />
<glyph unicode="&#xf653;" horiz-adv-x="2048" d="M1024 1444l455 -283l-455 -282l-455 282zM1024 2048q209 0 398.5 -81t326.5 -218t218 -326.5t81 -398.5t-81 -398.5t-218 -326.5t-326.5 -218t-398.5 -81t-398.5 81t-326.5 218t-218 326.5t-81 398.5t81 398.5t218 326.5t326.5 218t398.5 81zM1477 550v85l-140 -87
l-313 258l-311 -258l-142 87v-85l453 -270zM1339 616l453 297l-313 248l313 252l-453 294l-315 -263l-315 263l-453 -294l313 -252l-313 -248l453 -297l315 263z" />
<glyph unicode="&#xf654;" horiz-adv-x="2048" d="M1024 2048q208 0 397.5 -81t327 -218.5t218.5 -327t81 -397.5t-81 -397.5t-218.5 -327t-327 -218.5t-397.5 -81t-397.5 81t-327 218.5t-218.5 327t-81 397.5t81 397.5t218.5 327t327 218.5t397.5 81zM1656 392q18 20 1 38l-420 511l234 234q16 16 4 34q-11 20 -32 13
l-212 -58l-434 373l29 30q17 17 17 40t-17 40q-16 17 -40 17t-40 -17l-345 -345q-17 -16 -17 -40t17 -40q16 -17 40 -17t40 17l30 29l373 -434l-58 -212q-7 -21 13 -32q7 -4 14 -4q12 0 20 8l234 234l511 -420q7 -7 18 -7q10 0 20 8z" />
<glyph unicode="&#xf660;" horiz-adv-x="2048" d="M1024 2048q208 0 397.5 -81t327 -218.5t218.5 -327t81 -397.5t-81 -397.5t-218.5 -327t-327 -218.5t-397.5 -81t-397.5 81t-327 218.5t-218.5 327t-81 397.5t81 397.5t218.5 327t327 218.5t397.5 81zM1024 1707q-85 0 -170 -22q151 -189 265 -401q221 87 361 248
q-92 83 -209.5 129t-246.5 46zM737 1644q-146 -68 -247.5 -196t-134.5 -288q392 8 652 85q-116 213 -270 399zM341 1024q0 -132 47.5 -250.5t133.5 -212.5q217 330 540 444q10 3 28 9l24 8q-27 63 -59 130q-290 -90 -713 -96q0 -6 -0.5 -16t-0.5 -16zM1024 341q139 0 268 55
q-50 289 -140 528q-334 -93 -552 -435q185 -148 424 -148zM1400 454q120 80 199 201.5t100 266.5q-229 55 -431 27q84 -231 132 -495zM1230 1048q223 38 477 -21q-1 243 -155 430q-149 -170 -386 -266q28 -59 64 -143z" />
<glyph unicode="&#xf661;" horiz-adv-x="2048" d="M1441 1112q60 0 100 -37.5t40 -93.5h-282q6 57 42.5 94t99.5 37zM1441 1112q60 0 100 -37.5t40 -93.5h-282q6 57 42.5 94t99.5 37zM1024 2048q209 0 398.5 -81t326.5 -218t218 -326.5t81 -398.5t-81 -398.5t-218 -326.5t-326.5 -218t-398.5 -81t-398.5 81t-326.5 218
t-218 326.5t-81 398.5t81 398.5t218 326.5t326.5 218t398.5 81zM1256 1451v-86h377v86h-377zM732 597q89 0 154 22t100.5 60.5t52 83t16.5 97.5q0 47 -14 85.5t-33.5 59.5t-39.5 35.5t-34 19.5l-14 4q52 27 75 63q31 46 31 115q0 107 -72 166t-193 59h-420v-870h391z
M1297 872h452v41q0 157 -80 245.5t-228 88.5q-138 0 -224 -86t-86 -248q0 -157 86 -242.5t229 -85.5q112 0 193 56.5t101 147.5h-166q-1 -3 -3.5 -7.5t-12.5 -17t-23 -22t-35.5 -17t-48.5 -7.5q-66 0 -110 40.5t-44 113.5zM1441 1112q60 0 100 -37.5t40 -93.5h-282
q6 57 42.5 94t99.5 37zM728 979q142 0 142 -107q0 -59 -32.5 -91t-112.5 -32h-185v230h188zM853 1221q0 -97 -128 -97h-185v192h164q78 0 113.5 -19.5t35.5 -75.5z" />
<glyph unicode="&#xf670;" horiz-adv-x="2048" d="M1024 2048q209 0 398.5 -81t326.5 -218t218 -326.5t81 -398.5t-81 -398.5t-218 -326.5t-326.5 -218t-398.5 -81t-398.5 81t-326.5 218t-218 326.5t-81 398.5t81 398.5t218 326.5t326.5 218t398.5 81zM1408 1536v218q-7 -6 -23 -15.5t-80 -28t-146 -25.5q-78 52 -187 52
q-146 0 -245 -97.5t-99 -252.5q0 -101 45 -180.5t121 -123.5q-39 -33 -58 -74t-9 -94.5t58 -103.5q-86 -38 -137 -105t-51 -149q0 -128 118.5 -213.5t287.5 -85.5t287 85t118 214q0 124 -114 209.5t-279 89.5q-53 37 -60.5 78t29.5 104q141 4 235 100t94 249q0 83 -28 149
h123zM811 555q0 46 53.5 78.5t138.5 32.5t138.5 -32.5t53.5 -78.5q0 -48 -53.5 -80t-138.5 -32t-138.5 32t-53.5 80zM972 1567q53 0 88 -46t35 -125q0 -80 -35 -126.5t-88 -46.5q-54 0 -90 47t-36 126t36 125t90 46z" />
<glyph unicode="&#xf671;" horiz-adv-x="2048" d="M1024 2048q208 0 397.5 -81.5t326.5 -218.5t218.5 -326.5t81.5 -397.5q0 -234 -100 -441.5t-274.5 -351t-393.5 -200.5v268q0 76 -24.5 149.5t-82.5 118.5q140 21 249.5 79.5t175.5 156.5t66 221q0 161 -119 294q44 195 -9 303q-129 -11 -296 -113q-117 28 -216 28
t-216 -28q-167 102 -296 113q-56 -113 -9 -303q-119 -133 -119 -294q0 -123 66 -221t175.5 -156.5t249.5 -79.5q-55 -42 -83 -117q-44 -1 -89 8t-82 23.5t-71.5 32t-60.5 35.5t-45.5 33t-29.5 24l-11 10q-17 17 -33 5q-19 -11 -14 -33q5 -13 7 -18t20 -38t35.5 -56.5t53 -62
t75 -67t97.5 -59t124 -50.5v-206q-219 57 -393.5 200.5t-274.5 351t-100 441.5q0 208 81 397.5t218 326.5t326.5 218.5t398.5 81.5z" />
<glyph unicode="&#xf672;" horiz-adv-x="2048" d="M1024 2048q209 0 398.5 -81t326.5 -218t218 -326.5t81 -398.5t-81 -398.5t-218 -326.5t-326.5 -218t-398.5 -81t-398.5 81t-326.5 218t-218 326.5t-81 398.5t81 398.5t218 326.5t326.5 218t398.5 81zM1135 1956l-120 -121l483 -484l121 121zM860 1612l-73 -154l619 -289
l73 156zM725 1256l-30 -168l673 -119l28 169zM683 939v-171h682v171h-682zM1621 512v512h-170v-341h-854v341h-170v-512h1194z" />
<glyph unicode="&#xf680;" horiz-adv-x="2048" d="M1024 2048q209 0 398.5 -81t326.5 -218t218 -326.5t81 -398.5t-81 -398.5t-218 -326.5t-326.5 -218t-398.5 -81t-398.5 81t-326.5 218t-218 326.5t-81 398.5t81 398.5t218 326.5t326.5 218t398.5 81zM1609 1209q21 104 2 181.5t-69.5 128.5t-113 76.5t-129.5 25.5h-574
l-256 -1194h332l83 384h237q184 0 316.5 107t171.5 291zM1171 1365q64 0 99 -48.5t17 -117.5q-17 -72 -72 -123.5t-129 -51.5h-157l76 341h166z" />
<glyph unicode="&#xf681;" horiz-adv-x="2048" d="M1024 2048q209 0 398.5 -81t326.5 -218t218 -326.5t81 -398.5t-81 -398.5t-218 -326.5t-326.5 -218t-398.5 -81t-398.5 81t-326.5 218t-218 326.5t-81 398.5t81 398.5t218 326.5t326.5 218t398.5 81zM1505 472q64 51 72 133.5t-43 145.5l-273 299l235 282q49 66 37 146.5
t-78 130.5q-65 48 -146 37t-129 -77l-241 -327v230q0 80 -56 136t-136 56t-136 -56t-56 -136v-896q0 -80 56 -136t136 -56t136 56t56 136v261l289 -342q54 -60 134 -67t143 44z" />
<glyph unicode="&#xf690;" horiz-adv-x="2048" d="M2048 1024q0 -209 -81 -398.5t-218 -326.5t-326.5 -218t-398.5 -81t-398.5 81t-326.5 218t-218 326.5t-81 398.5q0 42 5 92q20 -148 134 -248t266 -100q167 0 286.5 119t119.5 286t-119.5 286.5t-286.5 119.5q-101 0 -188 -46.5t-144 -126.5q116 287 374 464.5t577 177.5
q240 0 450 -104.5t356 -286.5l-849 -1017l-106 197q-91 -122 -228 -188l292 -350l1064 1021q45 -148 45 -296z" />
<glyph unicode="&#xf691;" horiz-adv-x="2048" d="M1024 2048q208 0 397.5 -81t327 -218.5t218.5 -327t81 -397.5t-81 -397.5t-218.5 -327t-327 -218.5t-397.5 -81t-397.5 81t-327 218.5t-218.5 327t-81 397.5t81 397.5t218.5 327t327 218.5t397.5 81zM645 1720q-62 -24 -62 -56q0 -28 32 -73l278 -381q36 -50 73 -50
q63 0 63 93l-3 457q0 60 -20 89.5t-53 29.5q-14 0 -55 -15zM460 810q22 0 75 11l316 71q58 13 58 66q0 39 -46 62l-290 147q-43 23 -70 23q-51 0 -57 -71l-18 -232q-3 -40 3.5 -58.5t28.5 -18.5zM1024 404l5 367q1 23 -13 39t-39 16q-27 0 -56 -32l-234 -261
q-25 -27 -25 -55q0 -24 13.5 -38t44.5 -24l201 -64q36 -11 52 -11q27 0 39 15t12 48zM1155 1110q-16 -24 -16 -44q0 -23 14 -36.5t38 -13.5q19 0 51 10l296 87q82 24 82 68q0 19 -7.5 34t-28.5 39l-133 159q-18 21 -29.5 29t-26.5 8q-12 0 -21.5 -6t-15 -12.5t-13.5 -19.5z
M1603 683q18 25 18 51q0 32 -49 46l-330 107q-29 9 -41 9q-22 0 -37 -15.5t-15 -35.5q0 -18 11 -37l174 -294q22 -36 37 -49.5t36 -13.5q35 0 61 36z" />
<glyph unicode="&#xf6a0;" horiz-adv-x="2048" d="M1024 2048q209 0 398.5 -81t326.5 -218t218 -326.5t81 -398.5t-81 -398.5t-218 -326.5t-326.5 -218t-398.5 -81t-398.5 81t-326.5 218t-218 326.5t-81 398.5t81 398.5t218 326.5t326.5 218t398.5 81zM1344 325q157 0 268 111t111 268q0 122 -66 213q7 50 7 107
q0 130 -51 248.5t-136.5 204t-204 136.5t-248.5 51q-57 0 -107 -7q-91 66 -213 66q-157 0 -268 -111t-111 -268q0 -121 66 -216q-7 -46 -7 -104q0 -130 51 -248.5t136.5 -204t204 -136.5t248.5 -51q58 0 104 7q95 -66 216 -66zM1387 868q0 48 -22 88t-52 64.5t-73 44
t-73 28.5t-65 16l-95 24q-32 7 -48.5 11.5t-36 13.5t-27.5 22.5t-8 33.5q0 68 130 68q40 0 70.5 -10.5t49.5 -26t35 -31t36 -26t44 -10.5q43 0 68.5 29t25.5 71q0 75 -105 124t-241 49q-62 0 -119.5 -14t-108 -43t-81 -80t-30.5 -117q0 -105 60.5 -158t174.5 -81l133 -34
q84 -20 104 -33q26 -18 26 -52q0 -36 -36.5 -59.5t-96.5 -23.5q-56 0 -98.5 22t-64 48t-50.5 48t-62 22q-45 0 -67.5 -27t-22.5 -68q0 -83 111 -143.5t264 -60.5q143 0 247 73.5t104 197.5z" />
<glyph unicode="&#xf6b0;" horiz-adv-x="2048" d="M1024 2048q208 0 397.5 -81.5t326.5 -218.5t218.5 -326.5t81.5 -397.5q0 -209 -81.5 -398.5t-218.5 -326.5t-326.5 -218t-397.5 -81q-209 0 -398.5 81t-326.5 218t-218 326.5t-81 398.5q0 208 81 397.5t218 326.5t326.5 218.5t398.5 81.5zM1195 1640q-86 24 -192 24
q-134 0 -257 -51t-211.5 -136.5t-141 -204t-52.5 -248.5t52.5 -248.5t141 -204t211.5 -136.5t257 -51t256.5 50.5t211 136.5t141 204.5t52.5 248.5q0 29 -5 69q51 23 92 53.5t63.5 57t37 52t19 39t4.5 18.5q7 16 -7 36q-12 16 -33 16q-54 0 -100.5 9.5t-94.5 32t-75.5 39
t-83.5 52.5q-91 60 -158 93v-503q0 -95 -55.5 -174.5t-143.5 -123t-185 -43.5q-104 0 -180 64t-76 170q0 50 25.5 105.5t70 103.5t115 79.5t151.5 31.5q78 0 150 -47v386z" />
<glyph unicode="&#xf6b1;" horiz-adv-x="2048" d="M1197 14q-24 149 -102.5 226.5t-193.5 77.5q-98 0 -171 -62.5t-107 -174.5q190 -81 401 -81q84 0 173 14zM1024 2048q208 0 397.5 -81.5t326.5 -218.5t218.5 -326.5t81.5 -397.5q0 -287 -146.5 -528t-389.5 -373q-58 223 -222 348.5t-389 125.5q-181 0 -329 -88.5
t-231 -250.5q-160 146 -250.5 344.5t-90.5 421.5q0 208 81 397.5t218 326.5t326.5 218.5t398.5 81.5zM1515 666q14 22 7.5 46.5t-29.5 38.5q-399 247 -983 114q-26 -7 -39.5 -29t-8.5 -47t28 -38.5t48 -8.5q529 121 889 -97q23 -14 48.5 -8t39.5 29zM1638 941
q18 27 10.5 58.5t-36.5 48.5q-235 144 -547.5 181t-590.5 -46q-30 -9 -45.5 -38t-6.5 -59q9 -32 38 -48t61 -7q243 75 524 42t484 -158q29 -18 61 -10.5t48 36.5zM1650 1230q34 -20 71.5 -10.5t56.5 43.5q21 34 11 72.5t-44 58.5q-136 81 -314.5 130t-357 62t-350 -1.5
t-306.5 -55.5q-37 -10 -55.5 -45.5t-5.5 -73.5q11 -37 45 -55.5t71 -5.5q160 49 369 56t431 -37.5t378 -137.5z" />
<glyph unicode="&#xf6b2;" horiz-adv-x="2048" d="M1024 2048q208 0 397.5 -81.5t326.5 -218.5t218.5 -326.5t81.5 -397.5q0 -209 -81.5 -398.5t-218.5 -326.5t-326.5 -218t-397.5 -81q-209 0 -398.5 81t-326.5 218t-218 326.5t-81 398.5q0 208 81 397.5t218 326.5t326.5 218.5t398.5 81.5zM1408 597q205 0 294.5 63.5
t89.5 180.5q0 71 -24.5 120t-64 73.5t-87 39.5t-95 24t-87 20.5t-64 36t-24.5 63.5q0 45 32.5 69t93.5 24q66 0 98 -24.5t39 -79.5l176 21q-21 223 -304 223q-140 0 -226 -62.5t-86 -189.5q0 -67 24.5 -113.5t63.5 -70t86 -38.5t94.5 -24t86.5 -21t63.5 -36.5t24.5 -63.5
q0 -97 -183 -97q-52 0 -93.5 10t-72 31.5t-53.5 46t-42 63t-31.5 72t-27.5 83.5q-22 74 -41 124t-46 100.5t-59 81.5t-76 56.5t-102 36.5t-133 11q-83 0 -152.5 -24.5t-125 -75t-87 -137.5t-31.5 -204q0 -94 22 -167t57.5 -118.5t86.5 -75t104 -41t114 -11.5
q85 0 158.5 23.5t104.5 46.5l31 23l-57 154q-4 -4 -10.5 -11.5t-30 -26.5t-49 -33t-65.5 -26t-82 -12q-81 0 -140 76.5t-59 212.5q0 132 58 209.5t158 77.5q29 0 53.5 -5t44 -12.5t37.5 -23t31 -28t26 -36.5t21.5 -41t19.5 -48t17 -50t17.5 -55.5t18.5 -56.5
q37 -112 69 -165q117 -193 396 -193z" />
<glyph unicode="&#xf6b3;" horiz-adv-x="2048" d="M1024 2048q208 0 397.5 -81t327 -218.5t218.5 -327t81 -397.5t-81 -397.5t-218.5 -327t-327 -218.5t-397.5 -81t-397.5 81t-327 218.5t-218.5 327t-81 397.5t81 397.5t218.5 327t327 218.5t397.5 81zM140 835l16 98l-16 101q0 7 -7 7q-5 0 -7 -7l-13 -101l13 -98
q1 -7 7 -7q7 0 7 7zM208 775l20 158l-20 163q-2 7 -8 7q-7 0 -7 -7l-18 -163l18 -158q0 -8 7 -8q6 0 8 8zM280 748l19 185l-19 193q0 9 -9 9q-7 0 -9 -9l-17 -193l17 -185q2 -9 9 -9q9 0 9 9zM353 742l18 191l-18 198q0 11 -10 11q-9 0 -11 -11l-16 -198l16 -191
q2 -10 11 -10q10 0 10 10zM427 740l17 193l-17 184q-2 12 -12 12q-12 0 -12 -12l-15 -184l15 -193q0 -12 12 -12q10 0 12 12zM501 740l16 193l-16 299q0 13 -13 13q-14 0 -14 -13l-14 -299l14 -193q0 -13 14 -13q13 0 13 13zM576 741l15 192l-15 367q0 6 -4.5 10.5
t-10.5 4.5t-10.5 -4.5t-4.5 -10.5l-14 -367l14 -192q0 -6 4.5 -10.5t10.5 -4.5t10.5 4.5t4.5 10.5zM651 743l14 190l-14 398q0 16 -16 16q-7 0 -12 -4.5t-5 -11.5l-12 -398l12 -190q0 -7 5 -11.5t12 -4.5q16 0 16 16zM728 744l12 189l-12 411q-2 18 -19 18q-7 0 -12.5 -5
t-5.5 -13l-11 -411l11 -189q0 -8 5.5 -13t12.5 -5q17 0 19 18zM804 746l12 187l-12 400q0 9 -6 14.5t-14 5.5t-13.5 -5.5t-5.5 -14.5l-11 -400l11 -187q0 -8 5.5 -13.5t13.5 -5.5t14 5.5t6 13.5zM881 748l11 185l-11 386q0 9 -6 15t-15 6t-15 -6t-6 -15l-10 -386l10 -186
q0 -9 6 -15t15 -6t15 6t6 16zM959 749l10 184l-10 459q0 10 -6.5 16.5t-16.5 6.5q-9 0 -16 -6.5t-7 -16.5l-8 -459l8 -184q0 -10 7 -16.5t16 -6.5q10 0 16.5 6.5t6.5 16.5zM1037 751l11 182l-11 501q-1 10 -8 17t-17 7t-17 -7t-7 -17l-10 -501l10 -182q0 -10 7 -17t17 -7
t17 7t8 17zM1698 725q92 0 157 65.5t65 157.5t-65 157t-157 65q-46 0 -86 -17q-14 151 -126 254t-265 103q-72 0 -142 -26q-21 -9 -21 -27v-705q0 -24 24 -26q612 -1 616 -1z" />
<glyph unicode="&#xf6f1;" horiz-adv-x="2048" d="M1024 2048q208 0 397.5 -81t327 -218.5t218.5 -327t81 -397.5t-81 -397.5t-218.5 -327t-327 -218.5t-397.5 -81t-397.5 81t-327 218.5t-218.5 327t-81 397.5t81 397.5t218.5 327t327 218.5t397.5 81zM981 469v512h-512v-512h512zM981 1067v512h-512v-512h512zM1579 469
v512h-512v-512h512zM1579 1067v512h-512v-512h512z" />
<glyph unicode="&#xf6f2;" horiz-adv-x="2048" d="M1024 2048q208 0 397.5 -81t327 -218.5t218.5 -327t81 -397.5t-81 -397.5t-218.5 -327t-327 -218.5t-397.5 -81t-397.5 81t-327 218.5t-218.5 327t-81 397.5t81 397.5t218.5 327t327 218.5t397.5 81zM811 543v441l-427 7v-361zM811 1064v441l-427 -87v-361zM1536 394v578
l-640 10v-456zM1536 1076v578l-640 -132v-456z" />
<glyph unicode="&#xf6f3;" horiz-adv-x="2048" d="M1024 2048q208 0 397.5 -81t327 -218.5t218.5 -327t81 -397.5t-81 -397.5t-218.5 -327t-327 -218.5t-397.5 -81t-397.5 81t-327 218.5t-218.5 327t-81 397.5t81 397.5t218.5 327t327 218.5t397.5 81zM597 768v384q0 35 -25 60t-60 25t-60 -25t-25 -60v-384q0 -35 25 -60
t60 -25t60 25t25 60zM1408 640v555h-768v-555q0 -35 25 -60t60 -25h43v-214q0 -35 25 -60t60 -25q36 0 61 25t25 60v214h170v-214q0 -35 25 -60t61 -25q35 0 60 25t25 60v214h43q35 0 60 25t25 60zM640 1237h768q0 99 -46.5 184t-126.5 137l63 94q11 18 -6 30q-18 11 -30 -6
l-64 -96q-82 41 -174 41t-174 -41l-64 96q-12 17 -30 6q-17 -12 -6 -30l63 -94q-80 -52 -126.5 -137t-46.5 -184zM1621 768v384q0 35 -25 60t-60 25t-60 -25t-25 -60v-384q0 -35 25 -60t60 -25t60 25t25 60zM896 1408q0 18 -12.5 30.5t-30.5 12.5q-17 0 -29.5 -12.5
t-12.5 -30.5t12.5 -30.5t29.5 -12.5q18 0 30.5 12.5t12.5 30.5zM1237 1408q0 18 -12.5 30.5t-29.5 12.5q-18 0 -30.5 -12.5t-12.5 -30.5t12.5 -30.5t30.5 -12.5q17 0 29.5 12.5t12.5 30.5z" />
<glyph unicode="&#xf6f4;" horiz-adv-x="2048" d="M1024 2048q208 0 397.5 -81t327 -218.5t218.5 -327t81 -397.5t-81 -397.5t-218.5 -327t-327 -218.5t-397.5 -81t-397.5 81t-327 218.5t-218.5 327t-81 397.5t81 397.5t218.5 327t327 218.5t397.5 81zM486 880q111 0 159.5 43t48.5 105q0 46 -36.5 80t-123.5 34h-200
l-56 -262h208zM557 1274q112 0 160.5 43t48.5 105q0 46 -36.5 80t-123.5 34h-200l-56 -262h207zM945 469q111 0 159.5 43t48.5 105q0 47 -36 80.5t-124 33.5h-199l-57 -262h208zM1022 880q111 0 160 43t49 105q0 46 -36.5 80t-124.5 34h-199l-57 -262h208zM1094 1274
q111 0 160 43t49 105q0 46 -36.5 80t-124.5 34h-199l-56 -262h207zM1506 629q112 0 160.5 43t48.5 105q0 46 -36.5 80t-123.5 34h-200l-56 -262h207zM1584 1040q111 0 159.5 42.5t48.5 105.5q0 46 -36.5 80t-123.5 34h-199l-57 -262h208z" />
<glyph unicode="&#xf8ff;" horiz-adv-x="2048" d="M1024 2048q208 0 397.5 -81t327 -218.5t218.5 -327t81 -397.5t-81 -397.5t-218.5 -327t-327 -218.5t-397.5 -81t-397.5 81t-327 218.5t-218.5 327t-81 397.5t81 397.5t218.5 327t327 218.5t397.5 81zM1285 1820q-49 -4 -99.5 -27t-93.5 -62t-67 -98.5t-15 -127.5
q79 -3 148 44.5t104 122t23 148.5zM1294 441q48 0 99 37.5t89 90.5t69 106.5t47 90.5l17 38q-8 3 -21.5 8.5t-47.5 28.5t-59.5 52t-47 81t-21.5 112q0 51 16.5 96.5t39.5 74t46 50t40 31.5l16 9q-4 6 -11 17t-32 38t-53 48t-73 38t-93 17q-40 0 -79.5 -12.5t-66 -27t-58 -27
t-57.5 -12.5q-45 0 -122.5 39.5t-139.5 39.5q-42 0 -89 -16t-95 -51.5t-86.5 -84.5t-63 -123t-24.5 -159q0 -139 62 -288.5t152.5 -245.5t170.5 -96q40 0 110 28.5t130 28.5q68 0 129.5 -28.5t106.5 -28.5z" />
<glyph unicode="&#x1f44d;" horiz-adv-x="2048" d="M1024 2048q208 0 397.5 -81.5t326.5 -218.5t218.5 -326.5t81.5 -397.5q0 -209 -81.5 -398.5t-218.5 -326.5t-326.5 -218t-397.5 -81q-209 0 -398.5 81t-326.5 218t-218 326.5t-81 398.5q0 208 81 397.5t218 326.5t326.5 218.5t398.5 81.5zM1621 948q0 63 -49 102
q49 39 49 102q0 53 -37.5 90.5t-90.5 37.5h-272q-13 0 -22 12q-8 14 -2 24l4 14q4 13 10 36t12 50t10 59.5t4 60.5q0 87 -45 154q-19 28 -45 43.5t-50 15.5q-31 0 -52 -23t-21 -57q0 -72 -25.5 -140t-66 -118.5t-89.5 -92.5t-97 -68t-87 -40.5t-62 -14.5h-85v-598h171
l253 -94q73 -34 152 -34h268q46 0 80 33.5t34 80.5q0 26 -12 50q42 11 69.5 46t27.5 80q0 37 -21 68q39 13 63 46t24 75z" />
<glyph   />
<glyph  horiz-adv-x="682"  />
<glyph   />
<glyph unicode="&#xd;"  />
<glyph unicode=" " horiz-adv-x="512"  />
<glyph unicode="+" horiz-adv-x="1384" d="M1292 510h-515v-510h-170v510h-515v175h515v510h170v-510h515v-175z" />
<glyph unicode="-" horiz-adv-x="1975"  />
<glyph unicode="A" horiz-adv-x="1375" d="M1344 0h-218l-145 429h-595l-154 -429h-204l555 1479h230zM905 607l-218 654l-237 -654h455z" />
<glyph unicode="B" horiz-adv-x="1375" d="M1287 443q0 -132 -64.5 -234.5t-168.5 -155.5t-227 -53h-680v1479h668q165 0 280 -99t119 -275q0 -100 -50 -187.5t-142 -121.5q117 -41 191 -133.5t74 -219.5zM1017 1062q0 122 -62.5 181t-219.5 63h-384v-455h389q139 0 206 60.5t71 150.5zM1088 417q0 66 -14 111.5
t-50.5 82.5t-105 56t-171.5 20h-396v-519h462q69 0 123 23t85.5 60.5t48 79.5t18.5 86z" />
<glyph unicode="C" horiz-adv-x="1489" d="M1403 543q-11 -96 -44.5 -183t-89 -160t-128 -126.5t-167 -83.5t-201.5 -30q-150 0 -270.5 49t-196.5 127.5t-127.5 184t-72.5 212t-21 218.5q0 116 27 225t82.5 206t135 170.5t191 118t242.5 48.5q57 0 115.5 -9t125.5 -28.5t127.5 -57t113 -89t90.5 -129.5t52 -173
h-195q-29 147 -137.5 225.5t-262.5 78.5q-105 0 -189 -31t-140.5 -84t-94 -128.5t-55 -160t-19.5 -182.5q2 -91 19 -177t53 -166t87.5 -139.5t128 -95.5t169.5 -36q193 0 310 107t146 299h196z" />
<glyph unicode="D" horiz-adv-x="1489" d="M1384 792q0 -125 -24.5 -240.5t-74 -215t-119 -173.5t-166 -117.5t-208.5 -45.5h-628v1479h621q77 0 155.5 -22t157.5 -74.5t140 -129t101.5 -196t44.5 -265.5zM1178 775q0 85 -13.5 160.5t-45.5 144t-79.5 118t-120 79t-163.5 29.5h-389v-1138h413q119 0 210.5 81
t139.5 218t48 308z" />
<glyph unicode="E" horiz-adv-x="1375" d="M1266 0h-1093v1479h1081v-180h-879v-450h810v-178h-810v-493h891v-178z" />
<glyph unicode="F" horiz-adv-x="1256" d="M1197 1299h-822v-450h725v-178h-725v-671h-202v1479h1024v-180z" />
<glyph unicode="G" horiz-adv-x="1598" d="M1446 0h-128l-47 197q-70 -98 -200 -161.5t-286 -68.5q-146 0 -262 39t-195 108.5t-131.5 168.5t-76 215t-23.5 253q0 112 26.5 219.5t83.5 205t137.5 171t197 118t254.5 45.5q113 0 217.5 -31t190.5 -90t144.5 -152t73.5 -208h-192q-27 109 -95 180t-154 99.5t-194 28.5
q-212 0 -349 -161.5t-137 -435.5q0 -295 134 -454.5t352 -159.5q173 0 310 106q91 74 125.5 158.5t38.5 225.5h-460v171h645v-787z" />
<glyph unicode="H" horiz-adv-x="1489" d="M1332 0h-201v687h-773v-687h-202v1479h202v-614h773v614h201v-1479z" />
<glyph unicode="I" horiz-adv-x="569" d="M386 0h-201v1479h201v-1479z" />
<glyph unicode="J" horiz-adv-x="1029" d="M882 398q0 -117 -33.5 -203t-93.5 -136t-134.5 -73.5t-165.5 -25.5q-93 0 -167 23t-121 60t-78 86.5t-43.5 99t-12.5 100.5v145h187v-104q0 -123 54.5 -181.5t168.5 -58.5q122 0 177.5 62t57.5 194v1093h204v-1081z" />
<glyph unicode="K" horiz-adv-x="1375" d="M1363 0h-258l-520 740l-232 -221v-519h-201v1479h201v-720l718 720h275l-616 -597z" />
<glyph unicode="L" horiz-adv-x="1147" d="M1105 0h-953v1479h201v-1301h752v-178z" />
<glyph unicode="M" horiz-adv-x="1711" d="M1567 0h-197v1242l-412 -1242h-199l-422 1240v-1240h-190v1479h287l426 -1254l422 1254h285v-1479z" />
<glyph unicode="N" horiz-adv-x="1489" d="M1332 0h-227l-754 1192v-1192h-195v1479h237l745 -1197v1197h194v-1479z" />
<glyph unicode="O" horiz-adv-x="1598" d="M1519 740q0 -56 -5.5 -112t-23.5 -134.5t-48 -146.5t-85 -138.5t-127.5 -121t-182.5 -83.5t-243 -35q-145 0 -265.5 43t-203 116.5t-140 172.5t-84 209.5t-26.5 229.5q0 124 27 236t85 209t141.5 168.5t202.5 113t263 43.5q113 0 211 -25.5t169.5 -69.5t129.5 -105
t95.5 -129.5t63 -145t36 -149.5t10.5 -146zM1318 740q0 264 -136.5 426t-377.5 166q-230 0 -372.5 -160.5t-142.5 -431.5q0 -267 138 -428t377 -165q241 0 377.5 162.5t136.5 430.5z" />
<glyph unicode="P" horiz-adv-x="1375" d="M1278 1062q0 -66 -14 -126t-47 -117t-82.5 -99t-125.5 -68.5t-170 -28.5h-464v-623h-202v1479h666q188 0 311 -109t128 -308zM1071 1062q0 244 -291 244h-405v-514h398q295 0 298 270z" />
<glyph unicode="Q" horiz-adv-x="1598" d="M1519 740q0 -358 -215 -569l201 -157l-97 -121l-228 178q-155 -102 -379 -102q-145 0 -265.5 43t-203.5 116.5t-140.5 172.5t-84 209.5t-26.5 229.5q0 124 27 236t85 209t141.5 168.5t203 113t263.5 43.5q113 0 210.5 -25.5t169.5 -69.5t130 -105t96.5 -129.5t64 -145
t36.5 -149.5t11 -146zM1313 740q0 264 -135.5 426t-376.5 166q-231 0 -372.5 -160t-141.5 -432q0 -268 137 -428.5t377 -164.5q119 0 216 47l-154 117l102 125l189 -144q159 165 159 448z" />
<glyph unicode="R" horiz-adv-x="1489" d="M1384 0h-225q-26 57 -37.5 150t-15 186.5t-6.5 113.5q-26 178 -242 181h-502v-631h-202v1479h709q89 0 169 -24t146 -71.5t106 -128t43 -184.5q0 -230 -215 -343q79 -25 126 -87t56 -153q6 -56 12.5 -157t14.5 -165.5t25 -106.5q18 -42 38 -59zM1124 1052
q0 112 -58.5 181t-186.5 73h-523v-502h507q112 0 186.5 69t74.5 179z" />
<glyph unicode="S" horiz-adv-x="1375" d="M1273 415q0 -145 -76.5 -247.5t-204.5 -150.5t-297 -48q-284 0 -438 127t-155 392h185q0 -78 24 -139t62.5 -98.5t93.5 -62.5t109.5 -35.5t118.5 -12.5q59 0 112 7.5t104 25.5t88 45.5t59.5 71t22.5 99.5q0 39 -8.5 69.5t-24.5 54t-44.5 42.5t-64 34t-88 29.5t-110.5 28
t-138 31.5q-36 8 -55 12q-67 15 -119.5 32.5t-106.5 47.5t-90 67.5t-59.5 94t-25.5 125.5q0 92 30 171.5t90 143.5t161 101t231 37q111 0 201.5 -21t148 -51t101.5 -77.5t65.5 -84.5t36 -89.5t17 -75.5t5.5 -58q1 -9 1 -12h-185q0 63 -21.5 114t-57 84.5t-85 56.5
t-100.5 33.5t-108 12.5q-51 0 -96 -6.5t-90.5 -24.5t-77.5 -46.5t-52.5 -75.5t-20.5 -108q0 -141 178 -180l422 -97q332 -74 332 -389z" />
<glyph unicode="T" horiz-adv-x="1256" d="M1230 1299h-502v-1299h-202v1299h-498v180h1202v-180z" />
<glyph unicode="U" horiz-adv-x="1489" d="M1327 486q0 -105 -35.5 -195.5t-106 -162t-187 -113.5t-268.5 -43q-282 0 -423.5 130.5t-145.5 373.5v1003h202v-965q0 -171 95 -269t272 -98q180 0 285.5 94.5t110.5 268.5v969h201v-993z" />
<glyph unicode="V" horiz-adv-x="1375" d="M1330 1479l-538 -1479h-214l-538 1479h233l419 -1263l436 1263h202z" />
<glyph unicode="W" horiz-adv-x="1941" d="M1911 1479l-392 -1479h-208l-337 1225l-346 -1225h-211l-384 1479h216l272 -1206l339 1206h216l339 -1206l273 1206h223z" />
<glyph unicode="X" horiz-adv-x="1375" d="M1332 0h-249l-396 607l-410 -607h-239l529 759l-498 720h251l375 -566l376 566h240l-496 -723z" />
<glyph unicode="Y" horiz-adv-x="1375" d="M1342 1479l-557 -889v-590h-200v590l-554 889h242l422 -711l424 711h223z" />
<glyph unicode="Z" horiz-adv-x="1256" d="M1209 0h-1162v164l906 1137h-839v178h1095v-173l-910 -1126h910v-180z" />
<glyph unicode="a" horiz-adv-x="1147" d="M1093 2v-2q-57 -21 -119 -21q-168 0 -173 161q-154 -166 -389 -173q-151 0 -246 89t-95 214q0 60 15.5 109t39.5 82.5t64 60.5t76.5 42.5t91 29.5t93.5 20.5t98 16.5t91 16q82 14 117 50.5t35 79.5q0 83 -63.5 133t-185.5 50q-110 0 -176.5 -53t-70.5 -160h-168
q0 147 111.5 250.5t327.5 107.5q106 0 195.5 -32.5t150.5 -106.5t61 -179v-576q0 -60 22.5 -82t96.5 4v-131zM787 358v194q-29 -19 -84 -34t-111.5 -23.5t-117.5 -25t-108 -37.5t-77.5 -62t-30.5 -97q0 -78 52 -118.5t140 -40.5q51 0 109 17t109.5 47t85 77.5t33.5 102.5z
" />
<glyph unicode="b" horiz-adv-x="1147" d="M1088 569q3 -85 -10.5 -166.5t-48 -161.5t-88 -140t-138.5 -97t-191 -37q-104 0 -187.5 42.5t-130.5 123.5l-14 -133h-164v1479h185v-538q59 78 138.5 119t191.5 45q197 0 323.5 -149.5t133.5 -386.5zM898 538q0 198 -79 301.5t-222 103.5q-82 0 -143.5 -38.5t-95 -100.5
t-49 -128.5t-15.5 -135.5q0 -404 313 -414q140 0 215.5 112.5t75.5 299.5z" />
<glyph unicode="c" horiz-adv-x="1029" d="M991 379q-12 -111 -57 -194t-111 -129t-138 -67.5t-149 -21.5q-203 0 -340 158.5t-137 412.5q0 140 39.5 251t107 179t153.5 103.5t184 35.5q62 0 119.5 -11.5t114.5 -40t100.5 -71.5t74.5 -112t39 -156h-173q-10 106 -83.5 166.5t-184.5 60.5q-63 0 -114.5 -21t-94 -66
t-66.5 -126t-24 -192q0 -170 85 -287.5t214 -117.5q109 0 176.5 62t88.5 184h176z" />
<glyph unicode="d" horiz-adv-x="1147" d="M64 569q7 237 133.5 386.5t323.5 149.5q113 -4 191.5 -45t138.5 -119v538h185v-1479h-164v152q-48 -82 -139.5 -133.5t-192.5 -51.5q-106 0 -191 37t-138.5 97t-88 140t-48 161.5t-10.5 166.5zM254 538q0 -187 75.5 -299.5t215.5 -112.5q313 10 313 414q0 69 -15.5 135.5
t-48.5 128.5t-94.5 100.5t-144.5 38.5q-143 0 -222 -103.5t-79 -301.5z" />
<glyph unicode="e" horiz-adv-x="1147" d="M1074 476h-804q0 -150 91.5 -246.5t226.5 -96.5q68 0 125 22t91 54.5t52.5 66.5t18.5 61h185q-30 -172 -161 -270t-321 -98q-114 0 -209 42.5t-157 116t-97 171t-37 208.5q0 270 139.5 436t365.5 166q160 0 273.5 -81.5t168 -223.5t49.5 -328zM884 623q0 144 -87 234.5
t-212 90.5q-128 0 -219 -95.5t-96 -229.5h614z" />
<glyph unicode="f" horiz-adv-x="569" d="M538 1493v-149q-31 5 -76 5q-54 0 -76.5 -25t-22.5 -84v-164h175v-163h-175v-913h-185v913h-150v163h150v199q0 98 73.5 164t191.5 66q55 0 95 -12z" />
<glyph unicode="g" horiz-adv-x="1228" d="M1086 47q0 -262 -128 -390.5t-358 -128.5q-33 0 -66 3t-75 12.5t-79.5 24.5t-74.5 41.5t-63.5 61t-43.5 85t-18 111.5h180q0 -80 68 -125t160 -45q150 0 233.5 83t83.5 253v64q-65 -70 -145.5 -99t-183.5 -29q-84 0 -166.5 36.5t-151 103t-112 171.5t-46.5 230
q0 277 139.5 436t362.5 159q98 0 180 -42t123 -110v130h181v-1036zM905 536q0 180 -82.5 283t-227.5 103q-56 0 -109 -23t-97 -67t-70.5 -116.5t-26.5 -163.5q0 -106 26.5 -189.5t71.5 -132.5t99 -74.5t113 -25.5q132 0 216 107.5t87 298.5z" />
<glyph unicode="h" horiz-adv-x="1147" d="M1012 0h-185v704q0 117 -50 178t-161 61q-61 0 -113.5 -21t-96 -62.5t-68.5 -112t-25 -162.5v-585h-185v1479h185v-547q55 85 147 128t187 47q55 0 104 -10.5t98 -38t84 -70.5t57 -112.5t22 -159.5v-716z" />
<glyph unicode="i" horiz-adv-x="460" d="M318 1271h-185v203h185v-203zM318 0h-185v1076h185v-1076z" />
<glyph unicode="j" horiz-adv-x="543" d="M405 -185q0 -106 -70 -175t-200 -69q-59 0 -92 7v157q41 -10 83 -10q51 0 72.5 29t21.5 101v1221h185v-1261zM405 1271h-185v208h185v-208z" />
<glyph unicode="k" horiz-adv-x="1029" d="M1029 0h-230l-356 526l-130 -128v-398h-185v1479h185v-860l460 457h232l-429 -412z" />
<glyph unicode="l" horiz-adv-x="460" d="M320 0h-187v1479h187v-1479z" />
<glyph unicode="m" horiz-adv-x="1711" d="M1586 0h-185v695q0 248 -199 248q-108 0 -177 -78t-74 -211v-654h-185v742q0 84 -42 142.5t-131 58.5q-53 0 -99.5 -18.5t-87 -58t-65 -112t-26.5 -169.5v-585h-185v1076h171v-152q57 89 144 135t186 46q113 0 179.5 -46t109.5 -127q46 72 131 122.5t198 50.5
q42 0 84 -8.5t89 -33.5t82 -63.5t58.5 -105t23.5 -152.5v-742z" />
<glyph unicode="n" horiz-adv-x="1147" d="M1012 0h-185v673q0 61 -10 107.5t-33 84.5t-65.5 58t-102.5 20q-130 0 -216.5 -88.5t-86.5 -240.5v-614h-185v1076h175v-156q15 24 43.5 52.5t72 60t104 52t124.5 20.5q166 0 265.5 -96t99.5 -293v-716z" />
<glyph unicode="o" horiz-adv-x="1147" d="M1081 538q0 -112 -34.5 -213t-97.5 -179.5t-159.5 -126t-213.5 -50.5q-94 0 -175 30.5t-140.5 84t-102 125t-64 155.5t-21.5 174q0 155 58 283t174 207t271 79t271.5 -79t175 -207t58.5 -283zM891 538q1 68 -16.5 136t-53.5 129.5t-100 101t-145 41.5q-80 0 -143 -39
t-98.5 -101.5t-53.5 -131t-18 -136.5q0 -81 18 -152.5t54 -130.5t98 -93t143 -34q82 0 143.5 34t97 93.5t53.5 129.5t21 153z" />
<glyph unicode="p" horiz-adv-x="1147" d="M1090 507q-7 -237 -134 -386t-325 -149q-112 3 -190 44t-138 119v-562h-187v1503h166v-152q48 82 139.5 133.5t192.5 51.5q106 0 191 -37t138.5 -97t88.5 -140t48 -161.5t10 -166.5zM901 538q0 187 -76 300t-216 113q-160 -6 -236.5 -114t-76.5 -301q0 -69 15.5 -135
t48.5 -128.5t95 -101t145 -38.5q143 0 222 103.5t79 301.5z" />
<glyph unicode="q" horiz-adv-x="1147" d="M45 507q0 85 14 166t48.5 161.5t87 140t136.5 97t190 37.5q103 0 186 -42.5t130 -123.5l16 133h166v-1503h-185v562q-62 -78 -140 -119t-189 -44q-201 0 -328 143.5t-132 391.5zM235 538q0 -198 80 -301.5t223 -103.5q66 0 119 26t86.5 67t55.5 95.5t31 107.5t9 107
q0 404 -313 415q-140 0 -215.5 -113t-75.5 -300z" />
<glyph unicode="r" horiz-adv-x="683" d="M609 913q-154 0 -250 -71.5t-96 -196.5v-645h-185v1076h178v-182q94 206 353 206v-187z" />
<glyph unicode="s" horiz-adv-x="1029" d="M960 325q0 -155 -113.5 -256.5t-310.5 -101.5q-97 0 -176 20.5t-142.5 64.5t-101.5 118.5t-45 175.5h178q0 -220 287 -220q101 0 172.5 43t71.5 125q0 44 -23 70t-102 55t-247 69q-48 12 -81.5 22.5t-78 32.5t-72 49t-47.5 71.5t-20 99.5q0 163 114.5 253.5t293.5 90.5
q99 0 175.5 -26t118.5 -63t69.5 -86.5t36 -87.5t10.5 -76h-176q0 88 -64 134t-189 46q-15 0 -30 -1t-42 -5.5t-49 -14.5t-44.5 -26t-35.5 -43t-15 -62q0 -66 62.5 -95.5t267.5 -78.5q23 -5 35 -8q55 -15 95.5 -30t83.5 -39t70 -53t45 -71.5t19 -95.5z" />
<glyph unicode="t" horiz-adv-x="569" d="M538 128v-152q-57 -12 -95 -12q-118 0 -191.5 67t-73.5 163v719h-140v163h140v304h185v-304h175v-163h-175v-681q0 -59 22.5 -85t76.5 -26q33 0 76 7z" />
<glyph unicode="u" horiz-adv-x="1147" d="M116 1076h187v-673q0 -61 10 -107.5t33 -84.5t65.5 -58t102.5 -20q129 0 216.5 89t87.5 240v614h185v-1076h-178v156q-14 -24 -43 -52.5t-72 -59.5t-104 -51.5t-125 -20.5q-166 0 -265.5 95.5t-99.5 292.5v716z" />
<glyph unicode="v" horiz-adv-x="1029" d="M988 1076l-410 -1076h-194l-391 1076h206l294 -882l301 882h194z" />
<glyph unicode="w" horiz-adv-x="1489" d="M1458 1076l-311 -1076h-189l-216 832l-216 -832h-189l-309 1076h197l204 -848l220 848h202l211 -848l216 848h180z" />
<glyph unicode="x" horiz-adv-x="1029" d="M1007 0h-232l-265 405l-261 -405h-228l380 555l-361 521h233l248 -381l252 381h218l-363 -524z" />
<glyph unicode="y" horiz-adv-x="1029" d="M1007 1076q-166 -472 -314.5 -865.5t-182.5 -461.5q-66 -133 -149 -171.5t-235 -4.5v166q35 -13 63.5 -18.5t60 -3t58 22t45.5 56.5l74 171l-403 1109h204l293 -879l292 879h194z" />
<glyph unicode="z" horiz-adv-x="1029" d="M965 0h-901v140l647 784h-597v152h829v-149l-642 -780h664v-147z" />
</font>
</defs>
</svg>
