<?xml version="1.0" standalone="no"?>
<!DOCTYPE svg PUBLIC "-//W3C//DTD SVG 1.1//EN" "http://www.w3.org/Graphics/SVG/1.1/DTD/svg11.dtd" >
<svg xmlns="http://www.w3.org/2000/svg">
<metadata></metadata>
<defs>
<font id="SSSocialRegular" >
<font-face font-family="SS Social" units-per-em="2048" ascent="2176" descent="-640" />
<missing-glyph d="M0 2048h2048v-2048h-2048v2048zM1612 1792h-1176l588 -588zM256 1612v-1176l588 588zM436 256h1176l-588 588zM1792 436v1176l-588 -588z" />
<glyph  horiz-adv-x="2048" d="M0 2048h2048v-2048h-2048v2048zM1612 1792h-1176l588 -588zM256 1612v-1176l588 588zM436 256h1176l-588 588zM1792 436v1176l-588 -588z" />
<glyph unicode="&#x2709;" horiz-adv-x="2048" d="M2048 1664l-1024 -768l-1024 768q0 53 37.5 90.5t90.5 37.5h1792q53 0 90.5 -37.5t37.5 -90.5zM0 1434l1024 -768l1024 768v-1050q0 -53 -37.5 -90.5t-90.5 -37.5h-1792q-53 0 -90.5 37.5t-37.5 90.5v1050z" />
<glyph unicode="&#xe310;" horiz-adv-x="2048" d="M640 320q0 -133 -94 -226.5t-226 -93.5q-134 0 -227 93t-93 227q0 132 93.5 226t226.5 94q131 0 225.5 -94.5t94.5 -225.5zM2048 43q0 -18 -12.5 -30.5t-30.5 -12.5h-298q-18 0 -30.5 12.5t-12.5 30.5q0 221 -58 431t-162.5 388t-254 327.5t-327.5 254t-388 162.5
t-431 58q-18 0 -30.5 12.5t-12.5 30.5v298q0 18 12.5 30.5t30.5 12.5q273 0 532.5 -72t479.5 -201.5t405 -314.5t314.5 -405t201.5 -479.5t72 -532.5zM1408 43q0 -18 -12.5 -30.5t-30.5 -12.5h-298q-18 0 -30.5 12.5t-12.5 30.5q0 200 -77.5 381.5t-209 313t-313 209
t-381.5 77.5q-18 0 -30.5 12.5t-12.5 30.5v298q0 18 12.5 30.5t30.5 12.5q185 0 362 -49t327 -137t276 -214t214 -276t137 -327t49 -362z" />
<glyph unicode="&#xf601;" horiz-adv-x="2048" d="M2048 384q0 -159 -112.5 -271.5t-271.5 -112.5t-271.5 112.5t-112.5 271.5v1l-665 332q-103 -77 -231 -77q-159 0 -271.5 112.5t-112.5 271.5t112.5 271.5t271.5 112.5q128 0 231 -77l665 332v1q0 159 112.5 271.5t271.5 112.5t271.5 -112.5t112.5 -271.5t-112.5 -271.5
t-271.5 -112.5q-128 0 -231 77l-667 -333l667 -333q103 77 231 77q159 0 271.5 -112.5t112.5 -271.5z" />
<glyph unicode="&#xf610;" horiz-adv-x="2048" d="M768 0v939h-256v341h256v299q0 93 30 175.5t90 149t161 105.5t231 39q64 0 128 -5t96 -9l32 -5l-14 -322h-221q-90 0 -119.5 -42.5t-29.5 -128.5v-256h384l-26 -341h-358v-939h-384z" />
<glyph unicode="&#xf611;" horiz-adv-x="2048" d="M2048 1681q-84 -127 -209 -218v-55q0 -140 -35.5 -281.5t-102 -275t-170.5 -249.5t-233 -202.5t-297.5 -136.5t-355.5 -50q-379 0 -645 171q46 -7 100 -7q140 0 274 54t247 145q-135 1 -243.5 83.5t-147.5 208.5q42 -8 78 -8q58 0 112 15q-145 29 -241 144.5t-96 267.5v5
q90 -49 190 -52q-87 58 -137.5 150t-50.5 198q0 103 57 204q158 -192 382 -304.5t483 -126.5q-9 39 -9 97q0 174 122.5 296.5t296.5 122.5q179 0 309 -132q143 29 265 102q-48 -152 -185 -233q125 14 242 67z" />
<glyph unicode="&#xf612;" horiz-adv-x="2048" d="M43 1323h426v-1323h-426v1323zM1152 0v768q0 123 67.5 189.5t169.5 66.5q103 0 167.5 -73.5t64.5 -225.5v-725h427v768q0 282 -141 439.5t-371 157.5q-122 0 -219 -61t-165 -164l-14 183h-420l7 -299v-1024h427zM254 1536h-3q-111 0 -181 67.5t-70 167.5
q0 101 71.5 167.5t186.5 66.5q113 0 182.5 -66.5t71.5 -167.5q0 -101 -71 -168t-187 -67z" />
<glyph unicode="&#xf613;" horiz-adv-x="2048" d="M2048 1579v-86h-341v-341h-86v341h-341v86h341v341h86v-341h341zM889 882q104 -76 145.5 -154t41.5 -195q0 -74 -35.5 -142.5t-100 -123t-166.5 -87.5t-226 -33q-149 0 -273 37.5t-199.5 110.5t-75.5 167q0 151 154.5 269t371.5 118h93q-71 69 -71 147q0 55 26 101
q-17 -2 -50 -2q-180 0 -294 112t-114 277q0 103 66 194.5t174 145t227 53.5h536l-121 -87h-171q82 -31 127.5 -116.5t45.5 -192.5q0 -163 -151 -279q-63 -51 -82.5 -80.5t-19.5 -73.5q0 -34 47.5 -84.5t94.5 -81.5zM602 1150q103 -4 163.5 90t42.5 230q-17 136 -103 232
t-191 99q-103 4 -163.5 -88t-42.5 -227q18 -136 104.5 -234.5t189.5 -101.5zM548 232q204 0 296 76.5t92 203.5q0 17 -4 55q-6 21 -18.5 41.5t-22 33.5t-36.5 34.5t-37.5 29.5t-50 35.5t-51.5 35.5q-58 17 -133 22q-102 0 -191.5 -37.5t-143.5 -102.5t-54 -140
q0 -119 100.5 -203t253.5 -84z" />
<glyph unicode="&#xf614;" horiz-adv-x="2048" d="M1983 563q31 0 48 -20.5t17 -55.5q0 -40 -13 -86.5t-42.5 -95.5t-70.5 -88t-103.5 -64t-134.5 -25q-147 0 -256 96.5t-191 278.5q-264 -375 -591 -375q-63 0 -124.5 12.5t-126.5 42.5t-122 76t-107.5 117.5t-87 161.5t-57.5 214t-21 269q0 159 25 292.5t70 230.5
t105 170.5t134 117.5t152.5 66t164.5 22q83 0 158 -26t135 -73.5t110.5 -105.5t91.5 -131t71 -139.5t56 -141.5q90 243 176 547q13 39 33 54.5t55 15.5h194q34 0 53.5 -15t11.5 -44q-189 -657 -378 -1045q69 -197 133.5 -280.5t132.5 -83.5q63 0 82 53q24 58 88 58h129z
M634 462q123 0 238.5 107.5t229.5 331.5q-92 350 -199 517.5t-263 167.5q-58 0 -108.5 -15.5t-100 -54.5t-84 -100t-56 -159t-21.5 -224q0 -141 24.5 -248t61 -167t87.5 -96.5t96 -48t95 -11.5z" />
<glyph unicode="&#xf615;" horiz-adv-x="2048" d="M1447 0q-68 0 -140 27.5t-110 52t-122 85.5q-18 13 -27 19q-73 55 -123 88t-128 72t-167.5 58t-191.5 19q-76 0 -166 -18q-31 106 3 209t154 226q155 163 370 409t351 411q-175 -27 -326 -27q-52 0 -96.5 6t-89.5 20.5t-71 44.5t-26 73q0 54 32.5 122t64.5 109l33 42
q129 -90 489 -90q270 0 515 50q9 -27 9 -81q0 -66 -38.5 -126t-145.5 -179q-136 -154 -430 -472t-407 -456q77 -9 143 -26t125.5 -44.5t94 -47t93.5 -56.5q61 -41 94 -60.5t90 -46.5t118 -38.5t133 -11.5q66 0 115 18t109 72q25 -101 5 -184.5t-70 -143t-120 -92.5t-146 -33
z" />
<glyph unicode="&#xf616;" horiz-adv-x="2048" d="M2091 1088q0 -59 -27.5 -110t-74.5 -84q16 -60 16 -126q0 -111 -49.5 -215.5t-140 -188.5t-211.5 -147t-270.5 -97.5t-309.5 -34.5t-309.5 34.5t-270.5 97.5t-211.5 147t-140 188.5t-49.5 215.5q0 66 16 126q-47 33 -74.5 84t-27.5 110q0 98 68.5 166.5t166.5 68.5
q90 0 156 -60q133 87 304 136.5t360 51.5l133 400q6 19 23 29t37 6l352 -71q24 48 70 76.5t101 28.5q80 0 136 -56t56 -136t-56 -136t-136 -56q-76 0 -131 51.5t-60 125.5l-307 62l-109 -328q335 -23 579 -184q66 60 156 60q98 0 166.5 -68.5t68.5 -166.5zM555 917
q0 -61 43.5 -105t105.5 -44t105.5 44t43.5 105q0 62 -43.5 106t-105.5 44t-105.5 -44t-43.5 -106zM1378 453q15 13 17.5 32t-9.5 35q-12 15 -31.5 17.5t-35.5 -9.5q-124 -97 -295 -97t-295 97q-16 12 -35.5 9.5t-31.5 -17.5q-12 -16 -9.5 -35t17.5 -32q148 -116 354 -116
t354 116zM1344 768q62 0 105.5 44t43.5 105q0 62 -43.5 106t-105.5 44t-105.5 -44t-43.5 -106q0 -61 43.5 -105t105.5 -44z" />
<glyph unicode="&#xf620;" horiz-adv-x="2048" d="M1664 111q-7 -5 -20.5 -12t-59 -26.5t-96 -34t-130.5 -26.5t-163 -12q-285 0 -420 127t-135 385v640h-299v299q82 27 143.5 58t119.5 78.5t97.5 109t68 150t41.5 201.5h298v-512h470v-384h-470v-512q0 -85 10 -137.5t38 -91t78 -54.5t130 -16q57 0 131.5 21.5t121.5 43.5
l46 21v-316z" />
<glyph unicode="&#xf621;" horiz-adv-x="2048" d="M1024 2048q209 0 398.5 -81t326.5 -218t218 -326.5t81 -398.5t-81 -398.5t-218 -326.5t-326.5 -218t-398.5 -81t-398.5 81t-326.5 218t-218 326.5t-81 398.5t81 398.5t218 326.5t326.5 218t398.5 81zM1024 128q182 0 348 71t286 191t191 286t71 348t-71 348t-191 286
t-286 191t-348 71t-348 -71t-286 -191t-191 -286t-71 -348t71 -348t191 -286t286 -191t348 -71zM320 1332q-64 -152 -64 -308q0 -224 117.5 -409t311.5 -281zM1275 299l-242 659l-227 -671q113 -31 218 -31q135 0 251 43zM1474 1275q-3 5 -12.5 20.5t-12.5 21t-10.5 19
t-10.5 20t-8.5 18.5t-8 20.5t-5.5 19t-4 21t-1 20.5q0 56 36.5 97t91.5 41h9q-104 94 -236 146.5t-278 52.5q-198 0 -368 -93.5t-274 -252.5h47q35 0 86 2t85 4l33 3q19 1 28 -14t2.5 -31.5t-25.5 -18.5q-43 -4 -88 -7l280 -832l168 505l-121 327l-81 7q-19 1 -25.5 18
t2.5 32t28 14q128 -9 204 -9q36 0 87 2t84 4l33 3q20 1 29.5 -14t2.5 -31.5t-27 -18.5q-41 -4 -88 -7l277 -825l76 256q3 10 12 38t11.5 37.5t9.5 32.5t9.5 33t6.5 28t5.5 29t3 25t1.5 26q0 108 -64 211zM1792 1024q0 200 -95 367q5 -23 5 -78q0 -131 -57 -275l-235 -678
q174 102 278 278.5t104 385.5z" />
<glyph unicode="&#xf622;" horiz-adv-x="2048" d="M1920 1280q53 0 90.5 -37.5t37.5 -90.5v-512q0 -130 -51 -248.5t-136.5 -204t-204 -136.5t-248.5 -51h-768q-130 0 -248.5 51t-204 136.5t-136.5 204t-51 248.5v768q0 130 51 248.5t136.5 204t204 136.5t248.5 51h384q130 0 248.5 -51t204 -136.5t136.5 -204t51 -248.5
q0 -53 31 -90.5t76 -37.5h149zM640 1536q-53 0 -90.5 -37.5t-37.5 -90.5t37.5 -90.5t90.5 -37.5h384q53 0 90.5 37.5t37.5 90.5t-37.5 90.5t-90.5 37.5h-384zM1408 512q53 0 90.5 37.5t37.5 90.5t-37.5 90.5t-90.5 37.5h-768q-53 0 -90.5 -37.5t-37.5 -90.5t37.5 -90.5
t90.5 -37.5h768z" />
<glyph unicode="&#xf623;" horiz-adv-x="2048" d="M1109 2048q189 0 335 -92t225.5 -257t79.5 -376q0 -222 -80 -396t-231.5 -273t-351.5 -99q-143 0 -251 64.5t-176 169.5h-19v-789h-256v1664l-14 341h227l41 -237h16q73 124 190.5 202t264.5 78zM1045 744q90 0 169.5 37t142.5 107.5t99.5 183t36.5 251.5
q0 124 -36.5 227t-98.5 169t-141 102.5t-165 36.5q-71 0 -143.5 -31.5t-132.5 -87t-98 -143t-38 -188.5v-256q0 -92 36 -171t94.5 -129.5t130 -79t144.5 -28.5z" />
<glyph unicode="&#xf630;" horiz-adv-x="2048" d="M1024 1749q464 0 610 -13q211 -18 296 -85q79 -62 102 -205q16 -102 16 -392v-30q0 -301 -13 -401q-21 -152 -95 -217q-79 -71 -278 -91q-148 -16 -596 -16h-1h-1h-1h-1h-1h-1h-1h-1h-1h-1h-1h-1h-1h-1h-1h-1h-1h-1h-1h-1h-1h-1h-1h-1h-1h-1h-1h-1h-1h-1h-1h-1h-1h-9
q-464 0 -610 13q-211 18 -296 85q-79 62 -102 205q-16 102 -16 392v30q0 301 13 401q21 152 95 217q79 71 278 91q148 16 596 16h1h1h1h1h1h1h1h1h1h1h1h1h1h1h1h1h1h1h1h1h1h1h1h1h1h1h1h1h1h1h1h1h1h9zM768 640l640 384l-640 384v-768z" />
<glyph unicode="&#xf631;" horiz-adv-x="2048" d="M1195 1451q24 98 74 179.5t109 133.5t127 88.5t129 52t115 15.5q130 0 214.5 -95.5t84.5 -250.5q0 -132 -61.5 -297.5t-159 -322.5t-219.5 -309t-242 -265t-228.5 -182.5t-175.5 -69.5q-49 0 -93 15.5t-76 38t-61.5 58.5t-48 66.5t-37.5 74t-28 69t-21 62.5l-256 811
q-18 55 -43.5 75t-77 4t-135.5 -79l-85 104q8 10 22.5 28t59.5 69t90 97.5t108.5 103.5t121 98t122 69t116.5 28q47 0 85 -17.5t64.5 -45t48.5 -71t35 -84t24 -97.5t16.5 -98t13 -98t12.5 -86q15 -95 31.5 -180t40.5 -176t53.5 -145t59.5 -54q41 0 120 102t143 237t64 216
q0 66 -28.5 109t-85.5 52t-142 -33z" />
<glyph unicode="&#xf640;" horiz-adv-x="2048" d="M939 1024q0 -127 -63 -235t-171.5 -171t-235.5 -63t-235 63t-171 171t-63 235t63 235t171 171t235 63t235.5 -63t171.5 -171t63 -235zM2048 1024q0 -127 -63 -235t-171 -171t-235 -63t-235.5 63t-171.5 171t-63 235t63 235t171.5 171t235.5 63t235 -63t171 -171t63 -235z
" />
<glyph unicode="&#xf641;" horiz-adv-x="2048" d="M1749 2048q124 0 211.5 -87.5t87.5 -211.5v-1450q0 -124 -87.5 -211.5t-211.5 -87.5h-1450q-124 0 -211.5 87.5t-87.5 211.5v1450q0 124 87.5 211.5t211.5 87.5h1450zM1024 1408q-159 0 -271.5 -112.5t-112.5 -271.5t112.5 -271.5t271.5 -112.5t271.5 112.5t112.5 271.5
t-112.5 271.5t-271.5 112.5zM1835 256v896h-227q13 -59 13 -128q0 -162 -80 -299.5t-217.5 -217.5t-299.5 -80t-299.5 80t-217.5 217.5t-80 299.5q0 69 13 128h-227v-896q0 -18 12.5 -30.5t30.5 -12.5h1536q18 0 30.5 12.5t12.5 30.5zM1835 1536v256q0 18 -12.5 30.5
t-30.5 12.5h-256q-18 0 -30.5 -12.5t-12.5 -30.5v-256q0 -18 12.5 -30.5t30.5 -12.5h256q18 0 30.5 12.5t12.5 30.5z" />
<glyph unicode="&#xf642;" horiz-adv-x="2048" d="M1571 790q100 0 157.5 66t57.5 167q0 100 -61.5 168.5t-162.5 68.5q-52 0 -103.5 -21.5t-105.5 -66.5t-81.5 -72.5t-77.5 -81.5q85 -101 176.5 -164.5t200.5 -63.5zM490 508q-219 0 -354.5 146t-135.5 371q0 143 55.5 259t165.5 186t256 70q72 0 139 -19t118 -47
t106.5 -76t94 -89.5t90.5 -103.5q48 58 87.5 100.5t94 89.5t106.5 76.5t118.5 49t135.5 19.5q222 0 351.5 -144t129.5 -366q0 -143 -58.5 -261t-170 -189.5t-255.5 -71.5q-81 0 -158 25.5t-145 72.5t-123 99t-113 120q-121 -127 -169 -168q-146 -127 -302 -145
q-31 -4 -64 -4zM486 790q92 0 191.5 67.5t178.5 160.5q-42 46 -79.5 81t-89 75.5t-106 63t-104.5 22.5q-93 0 -153 -72t-60 -169q0 -102 60 -165.5t162 -63.5z" />
<glyph unicode="&#xf650;" horiz-adv-x="2048" d="M1071 2048q164 0 305.5 -56t236.5 -149.5t149 -215.5t54 -252q0 -229 -79 -412.5t-224 -288.5t-330 -105q-94 0 -175.5 42t-113.5 102q-67 -270 -83 -322q-22 -83 -75.5 -179t-85.5 -140t-50 -65q-8 -9 -17.5 -6.5t-11.5 11.5q0 1 -3.5 28t-6.5 56.5t-5 77t-1.5 91.5
t5.5 97t16 98l149 640q-35 76 -35 187q0 131 65 217.5t160 86.5q77 0 118 -49.5t41 -126.5q0 -47 -17.5 -115t-46 -158.5t-41.5 -143.5q-21 -93 36.5 -160.5t151.5 -67.5q109 0 194.5 86t131.5 228t46 312q0 200 -129 325.5t-359 125.5q-130 0 -241 -46t-184.5 -124
t-114.5 -179.5t-41 -212.5q0 -138 78 -233q16 -20 19 -31t-2 -33q-3 -16 -24 -94q-5 -23 -21 -31t-38 0q-118 50 -179 171t-61 279q0 102 33 204.5t102 198.5t166 169.5t236.5 118t301.5 44.5z" />
<glyph unicode="&#xf651;" horiz-adv-x="2048" d="M2304 1664v-85h-85q-64 0 -115.5 -51.5t-95.5 -159.5q-377 -958 -387 -984h-85l-417 1124q-16 42 -44.5 56.5t-93.5 14.5h-85v85h683v-85h-214l308 -849l268 678q30 76 14.5 123.5t-78.5 47.5h-85v85h512zM939 768q0 -110 -41.5 -200.5t-130.5 -149t-212 -58.5
q-135 0 -243.5 60.5t-174.5 146.5l-52 -183h-85v512h85q37 -99 83 -177.5t92.5 -128.5t97 -83.5t96.5 -47t91 -13.5q115 0 190.5 62.5t75.5 143.5q0 82 -42.5 132t-161.5 86l-315 95q-304 95 -304 379q0 85 29.5 152.5t79 108.5t112 62t132.5 21q118 0 205.5 -46.5
t143.5 -114.5l35 137h86v-427h-86q-40 171 -147.5 273t-238.5 102q-61 0 -108.5 -19.5t-74 -51t-39.5 -65.5t-13 -68q0 -114 180 -171q188 -59 335 -102q320 -91 320 -367z" />
<glyph unicode="&#xf652;" horiz-adv-x="2048" d="M384 1408l469 -128v171l-469 128v-171zM384 1109l469 -128v171l-469 128v-171zM384 811l469 -128v170l-469 128v-170zM1664 1408l-469 -128v171l469 128v-171zM1664 1109l-469 -128v171l469 128v-171zM1664 811l-469 -128v170l469 128v-170zM1887 1901q33 -22 33 -66
v-1280q0 -29 -18 -52.5t-46 -30.5l-735 -197q14 -62 46.5 -108t93.5 -94q5 -2 5 -9q-4 -7 -10 -7l-109 -14l-9 -162q0 -5 -7 -9h-3q-4 0 -7 2q-80 78 -121.5 170.5t-53.5 225.5l-754 202q-28 7 -46 30.5t-18 52.5v1280q0 44 33 66q35 27 74 17l640 -173q87 -23 149 -93
q62 70 149 93l640 173q38 11 74 -17zM939 448v998q0 42 -32 82t-75 53l-533 142v-1102zM1749 621v1102l-533 -142q-43 -13 -75 -53t-32 -82v-998z" />
<glyph unicode="&#xf653;" horiz-adv-x="2048" d="M2048 915l-602 -391l-422 351l607 374zM0 915l602 -391l422 351l-607 374zM0 1583l602 394l422 -353l-607 -375zM2048 1583l-602 394l-422 -353l607 -375zM1024 71l604 363v123l-184 -118l-420 346l-417 -346l-185 118v-123z" />
<glyph unicode="&#xf654;" horiz-adv-x="2048" d="M2036 12q-14 -12 -31 -12q-16 0 -27 10l-838 686l-384 -385q-14 -12 -31 -12q-11 0 -22 6q-28 18 -18 51l111 315l-626 731l-49 -49q-19 -21 -50 -21q-29 0 -50 21t-21 50.5t21 49.5l574 574q20 21 49.5 21t50.5 -21t21 -50.5t-21 -49.5l-49 -49l731 -626l315 111
q33 10 51 -18q17 -28 -6 -53l-385 -384l686 -838q10 -13 9.5 -29.5t-11.5 -28.5z" />
<glyph unicode="&#xf660;" horiz-adv-x="2048" d="M998 1356q-401 -118 -977 -128q48 240 200.5 431.5t373.5 293.5q231 -280 403 -597zM270 329q-128 140 -199 318.5t-71 376.5v47q642 12 1069 145q47 -93 90 -197q-52 -14 -78 -23q-487 -173 -811 -667zM1427 83q-190 -83 -403 -83q-176 0 -339.5 57.5t-295.5 162.5
q326 515 827 655q138 -366 211 -792zM2036 870q-32 -216 -150 -398t-298 -301q-73 401 -199 739q308 45 647 -40zM1166 1413q-172 322 -398 602q130 33 256 33q194 0 369.5 -69t313.5 -194q-207 -238 -541 -372zM2048 1029q-384 86 -716 31q-28 72 -95 215q352 141 579 398
q110 -133 170.5 -298.5t61.5 -345.5z" />
<glyph unicode="&#xf661;" horiz-adv-x="2048" d="M853 1071q8 -2 21.5 -7t47.5 -27.5t59.5 -52.5t47 -87t21.5 -127q0 -77 -24 -143t-76 -122t-147.5 -88.5t-226.5 -32.5h-576v1280h619q179 0 285 -86.5t106 -245.5q0 -50 -12.5 -93t-27 -67.5t-40.5 -47.5t-37.5 -30.5t-32.5 -18.5q-5 -3 -7 -4zM294 1441v-282h273
q187 0 187 145q0 79 -52.5 108t-168.5 29h-239zM567 607q118 0 165.5 47.5t47.5 134.5q0 159 -209 159h-277v-341h273zM2048 844v-57h-668q1 -107 66.5 -167.5t160.5 -60.5q39 0 72.5 11t53 26.5t33 30.5t18.5 26l6 11h246q-30 -134 -149.5 -216.5t-286.5 -82.5
q-208 0 -335 125.5t-127 353.5q0 122 34.5 217t96.5 154.5t144 90.5t180 31q219 0 337 -130t118 -363zM1384 946h415q0 83 -58 138.5t-148 55.5q-92 0 -145.5 -55t-63.5 -139zM1877 1493v128h-554v-128h554z" />
<glyph unicode="&#xf670;" horiz-adv-x="2048" d="M1579 2048v-299h-169q41 -93 41 -204q0 -103 -35.5 -192t-96.5 -150t-143.5 -97t-175.5 -39q-54 -88 -41.5 -145t93.5 -111q146 -6 266.5 -60t190.5 -145.5t70 -200.5q0 -116 -75 -209.5t-201.5 -144.5t-278.5 -51t-279 52t-201.5 145t-74.5 208q0 112 71 203t192 143
q-54 53 -76.5 108.5t-15 104.5t33 91t66.5 76q-106 60 -167 167.5t-61 246.5q0 213 135.5 347.5t333.5 134.5q141 0 256 -71q71 4 132.5 15.5t98.5 24t63.5 24.5t36.5 20zM1024 555q-115 0 -185.5 -43t-70.5 -107t70.5 -106.5t185.5 -42.5t185.5 42.5t70.5 106.5t-70.5 107
t-185.5 43zM981 1323q74 0 122.5 63t48.5 171q0 109 -48.5 172t-122.5 63q-73 0 -121.5 -63t-48.5 -172q0 -108 48.5 -171t121.5 -63z" />
<glyph unicode="&#xf671;" horiz-adv-x="2048" d="M1899 1413q149 -189 149 -429q0 -178 -45.5 -315t-130 -230.5t-212 -153.5t-283.5 -87t-353 -27q-247 0 -431.5 43t-319.5 137.5t-204 252t-69 377.5q0 245 149 429q-53 285 22 467q242 -19 445 -180q195 52 408 52q214 0 405 -52q210 161 448 180q75 -182 22 -464z
M1024 299q754 0 754 426q0 85 -26.5 152t-66.5 105.5t-92 63.5t-97 33.5t-88 8.5q-48 0 -144 -10.5t-240 -10.5t-240 10.5t-144 10.5q-43 0 -88 -8.5t-97 -33.5t-92 -63.5t-66.5 -105.5t-26.5 -152q0 -426 754 -426zM1451 704q0 192 -107 192t-107 -192t107 -192t107 192z
M811 704q0 192 -107 192t-107 -192t107 -192t107 192z" />
<glyph unicode="&#xf672;" horiz-adv-x="2048" d="M1920 768h-256v-512h-1280v512h-256v-768h1792v768zM512 384v256h1024v-256h-1024zM531 863l43 253l1009 -177l-45 -254zM671 1417l106 233l930 -432l-109 -232zM1010 1982l182 182l723 -725l-180 -180z" />
<glyph unicode="&#xf680;" horiz-adv-x="2048" d="M43 0l445 2048h1005q114 0 222 -44.5t194.5 -134t120 -223.5t-0.5 -314q-67 -317 -295.5 -504.5t-545.5 -187.5h-413l-135 -640h-597zM1474 1327q32 115 -29 204.5t-170 89.5h-291l-131 -597h275q128 0 223 89.5t123 213.5z" />
<glyph unicode="&#xf681;" horiz-adv-x="2048" d="M1801 114q-102 -81 -230.5 -69.5t-214.5 107.5l-460 559v-391q0 -133 -94 -226.5t-226 -93.5q-134 0 -227 93t-93 227v1408q0 132 93.5 226t226.5 94q131 0 225.5 -94.5t94.5 -225.5v-344l389 517q78 105 208 124.5t237 -60.5q105 -78 124.5 -208t-60.5 -238l-386 -452
l441 -500q83 -103 69 -236.5t-117 -216.5z" />
<glyph unicode="&#xf690;" horiz-adv-x="2048" d="M2048 1493v-597l-853 -683l-384 325q170 84 275 242l109 -183zM0 1152q0 104 40.5 198.5t109.5 163.5t163.5 109.5t198.5 40.5t198.5 -40.5t163.5 -109.5t109.5 -163.5t40.5 -198.5t-40.5 -198.5t-109.5 -163.5t-163.5 -109.5t-198.5 -40.5t-198.5 40.5t-163.5 109.5
t-109.5 163.5t-40.5 198.5z" />
<glyph unicode="&#xf691;" horiz-adv-x="2048" d="M1031 1291q0 -132 -90 -132q-52 0 -105 71l-396 540q-45 62 -45 104q0 45 87 78l362 134q57 21 79 21q47 0 75.5 -42.5t28.5 -126.5zM794 961q33 -17 49 -37t16 -51q0 -74 -83 -93l-451 -100q-73 -16 -106 -16q-32 0 -41.5 26t-5.5 83l26 329q9 99 82 99q38 0 100 -31z
M956 686q35 0 55.5 -22.5t19.5 -54.5l-8 -520q0 -47 -16.5 -68t-55.5 -21q-26 0 -74 15l-287 91q-44 14 -63.5 34t-19.5 54q0 38 35 78l335 369q42 45 79 45zM1262 956q-35 0 -54.5 18.5t-19.5 51.5q0 29 23 63l271 428q13 19 19.5 27t21 17t31.5 9q22 0 38 -11t42 -42
l190 -224q29 -32 40 -53.5t11 -50.5q0 -33 -27.5 -55.5t-89.5 -41.5l-422 -123q-45 -13 -74 -13zM1203 713q0 28 21 50t52 22q21 0 60 -12l470 -151q37 -11 54 -26.5t17 -39.5q0 -35 -26 -72l-193 -277q-35 -51 -87 -51q-30 0 -51.5 19t-52.5 69l-249 417q-15 25 -15 52z
" />
<glyph unicode="&#xf6a0;" horiz-adv-x="2048" d="M1951 870q97 -143 97 -315q0 -150 -74.5 -278t-202.5 -202.5t-278 -74.5q-172 0 -315 97q-86 -12 -154 -12q-191 0 -365 74.5t-299.5 200t-200 299.5t-74.5 365q0 68 12 154q-97 143 -97 315q0 150 74.5 278t202.5 202.5t278 74.5q172 0 315 -97q86 12 154 12
q191 0 365 -74.5t299.5 -200t200 -299.5t74.5 -365q0 -68 -12 -154zM1043 384q138 0 256 46t194 141t76 221q0 267 -426 362l-143 31q-39 9 -59.5 14.5t-48.5 16t-41 21.5t-23 28.5t-10 40.5q0 54 52 80.5t145 26.5q60 0 106 -16t74 -39.5t52.5 -46.5t54.5 -39t66 -16
q63 0 102.5 43.5t39.5 106.5q0 75 -77 135.5t-195.5 91.5t-249.5 31q-93 0 -179 -21t-162 -64t-122 -119t-46 -175q0 -83 26 -145.5t77 -103.5t109 -66t139 -46l201 -47q113 -29 142 -44q55 -29 55 -89q0 -52 -55 -87.5t-144 -35.5q-59 0 -107.5 15.5t-79 39t-59.5 51
t-51 51t-52 39t-64 15.5q-67 0 -102 -41t-35 -101q0 -83 76 -153.5t206 -111.5t282 -41z" />
<glyph unicode="&#xf6b0;" horiz-adv-x="2048" d="M2048 1427q-24 -145 -175 -242q-57 -37 -131 -64q7 -43 7 -97q0 -174 -69 -332t-186 -272t-279 -181.5t-340 -67.5t-340 67.5t-279.5 181.5t-186.5 272t-69 332t69 332t186.5 272t279.5 181.5t340 67.5q129 0 256 -35v-505q-84 50 -192 50q-107 0 -199 -42.5t-149 -107.5
t-89.5 -138t-32.5 -139q0 -92 50.5 -162t127 -103.5t164.5 -33.5q127 0 239.5 58t181.5 162t69 228v662q24 -12 176 -100q73 -45 118.5 -70t113.5 -55t137 -43.5t145 -13.5q22 0 43 -19q14 -19 14 -43z" />
<glyph unicode="&#xf6b1;" horiz-adv-x="2048" d="M1460 1474q16 -10 19.5 -27.5t-5.5 -31.5q-8 -16 -25.5 -20t-33.5 6q-246 148 -604 66q-18 -5 -33.5 5t-18.5 26q-4 18 5.5 33t27.5 19q395 90 668 -76zM1486 1583q-140 88 -332 110.5t-355 -29.5q-22 -5 -42 5.5t-27 32.5q-5 21 6 40t32 26q187 57 400.5 31.5
t372.5 -123.5q19 -10 24.5 -32.5t-5.5 -41.5q-13 -19 -34.5 -24.5t-39.5 5.5zM1024 1365q133 0 247 -47t196.5 -133.5t129 -215.5t46.5 -286q0 -156 -49 -286t-133 -216t-196.5 -133.5t-240.5 -47.5q-133 0 -247 47t-196.5 133.5t-129 216t-46.5 286.5q0 156 49 285.5
t133 215.5t196.5 133.5t240.5 47.5zM1024 270q130 0 212 112t82 301q0 201 -80.5 306.5t-213.5 105.5q-130 0 -212 -111.5t-82 -300.5q0 -202 80.5 -307.5t213.5 -105.5zM1655 1823q-14 -23 -39.5 -29.5t-48.5 7.5q-107 63 -258 93t-293.5 25t-249.5 -39q-26 -8 -50 5
t-31 40q-7 25 5.5 48t37.5 32q125 38 284 43.5t328.5 -28.5t292.5 -107q22 -14 28.5 -40.5t-6.5 -49.5z" />
<glyph unicode="&#xf6b2;" horiz-adv-x="2048" d="M1564 640q245 0 245 128q0 41 -20 69.5t-54.5 45t-79 28.5t-93 22.5t-97.5 23.5t-93.5 36t-79 55t-54.5 85t-20 123q0 171 115 254t303 83q373 0 403 -299l-235 -28q-9 74 -52.5 108t-130.5 34q-79 0 -123.5 -33.5t-44.5 -92.5q0 -42 20.5 -71t55 -45t79 -27t93.5 -21
t98.5 -22.5t94 -36.5t79 -57.5t55 -90t20.5 -131.5q0 -76 -26.5 -133.5t-85 -101.5t-159 -67t-241.5 -23q-74 0 -140 10.5t-116 27.5t-94.5 43.5t-75.5 53t-59 62.5t-46 66t-35 69t-26.5 65t-21.5 61q-5 14 -7 21q-9 28 -24 75t-23.5 73.5t-23 66.5t-25.5 63t-28.5 54.5
t-34.5 49t-40.5 38t-49.5 30.5t-59 17t-71 7q-133 0 -211 -103.5t-78 -280.5q0 -181 78.5 -282.5t186.5 -101.5q56 0 109 14.5t88.5 35.5t63.5 42t41 36l13 14l76 -204q-6 -5 -16.5 -13.5t-47.5 -29.5t-79 -37t-109 -29.5t-139 -13.5q-81 0 -152 15.5t-138.5 54.5
t-115.5 99.5t-77 157.5t-29 221q0 156 42 273t116.5 184.5t167 100t203.5 32.5q85 0 154 -12t122.5 -33t97.5 -58.5t76 -78t61.5 -102t51 -121t46.5 -143.5q17 -56 30.5 -94.5t34.5 -84.5t43 -76.5t53.5 -61t69 -48.5t87 -29t108.5 -11z" />
<glyph unicode="&#xf6b3;" horiz-adv-x="2048" d="M84 688q-8 0 -8 8l-20 181l20 186q0 8 8 8q7 0 9 -8l23 -186l-23 -181q-2 -8 -9 -8zM16 765zM8 757q-8 0 -8 8l-15 112l15 115q0 8 8 8t8 -8l18 -115l-18 -112q0 -8 -8 -8zM176 1097l22 -220l-22 -211q-2 -10 -11 -10q-8 0 -10 10l-19 211l19 220q2 10 10 10q9 0 11 -10z
M247 647q-10 0 -12 12l-18 218l18 226q2 12 12 12q12 0 12 -12l21 -226l-21 -218q0 -12 -12 -12zM330 643q-14 0 -14 14l-17 220l17 210q0 14 14 14q13 0 13 -14l20 -210l-20 -220q0 -14 -13 -14zM446 877l-18 -220q0 -15 -15 -15q-14 0 -16 15l-16 220l16 341q2 16 16 16
q6 0 10.5 -4.5t4.5 -11.5zM496 641q-7 0 -12 5t-5 12l-15 219l15 419q0 7 5 12t12 5q16 0 18 -17l17 -419l-17 -219q-2 -17 -18 -17zM581 1350q17 0 19 -19l16 -454l-16 -217v1q-2 -19 -19 -19q-8 0 -13.5 5t-5.5 13l-14 217l14 454q0 19 19 19zM666 641q-9 0 -15 6t-6 15
l-13 215l13 469q0 9 6 15t15 6q19 0 21 -21l14 -469l-14 -215q-2 -21 -21 -21zM751 641q-9 0 -15.5 6.5t-6.5 16.5l-12 213l12 457q0 10 6.5 16.5t15.5 6.5q10 0 16.5 -6.5t6.5 -16.5l14 -457l-14 -213q0 -10 -6.5 -16.5t-16.5 -6.5zM874 877l-12 -212q0 -10 -7 -17t-17 -7
t-17 7t-8 17l-11 212l11 440q1 11 8 18t17 7t17 -7t7 -17zM925 641q-11 0 -18.5 7.5t-7.5 17.5l-10 211l10 524q0 11 7.5 18.5t18.5 7.5t18.5 -7.5t7.5 -18.5l11 -524l-11 -211v1q0 -11 -7.5 -18.5t-18.5 -7.5zM1012 1477q11 0 19 -8.5t8 -19.5l13 -572l-13 -208v1
q0 -12 -8 -20t-19 -8q-12 0 -20 8t-8 19l-12 208l12 572q0 11 8 19.5t20 8.5zM1091 640q-11 1 -19 10t-9 20v806q1 20 25 30q77 30 162 30q175 0 303 -118t143 -290q44 19 98 19q105 0 179.5 -74t74.5 -179t-74.5 -179.5t-179.5 -74.5h-703z" />
<glyph unicode="&#xf6f1;" horiz-adv-x="2048" d="M0 2048h981v-981h-981v981zM1067 2048h981v-981h-981v981zM0 981h981v-981h-981v981zM1067 981h981v-981h-981v981z" />
<glyph unicode="&#xf6f2;" horiz-adv-x="2048" d="M768 1804v-735l-683 -7v602zM85 986l683 -7v-735l-683 140v602zM1963 2048v-967l-1110 -11v751zM853 978l1110 -11v-967l-1110 227v751z" />
<glyph unicode="&#xf6f3;" horiz-adv-x="2048" d="M384 1365v-1v1zM384 768v2v-2zM384 1344q0 53 -37.5 90.5t-90.5 37.5t-90.5 -37.5t-37.5 -90.5v-576q0 -53 37.5 -90.5t90.5 -37.5t90.5 37.5t37.5 90.5v576zM1920 1344q0 53 -37.5 90.5t-90.5 37.5t-90.5 -37.5t-37.5 -90.5v-576q0 -53 37.5 -90.5t90.5 -37.5t90.5 37.5
t37.5 90.5v576zM1621 1451h-1194v-896q0 -53 37.5 -90.5t90.5 -37.5h128v-299q0 -53 37.5 -90.5t90.5 -37.5t90.5 37.5t37.5 90.5v299h170v-299q0 -53 37.5 -90.5t90.5 -37.5t90.5 37.5t37.5 90.5v299h128q53 0 90.5 37.5t37.5 90.5v896zM1314 1978q140 -72 223.5 -201.5
t83.5 -283.5h-1194q0 154 83.5 283.5t223.5 201.5l-112 187q-11 18 7 29t29 -7l115 -190q117 51 251 51t251 -51l115 190q11 18 29 7t7 -29zM747 1707q26 0 45 18.5t19 45.5q0 26 -19 45t-45 19q-27 0 -45.5 -19t-18.5 -45q0 -27 18.5 -45.5t45.5 -18.5zM1301 1707
q27 0 45.5 18.5t18.5 45.5q0 26 -18.5 45t-45.5 19q-26 0 -45 -19t-19 -45q0 -27 19 -45.5t45 -18.5z" />
<glyph unicode="&#xf6f4;" horiz-adv-x="2048" d="M652 1594q0 -39 -13.5 -72.5t-44.5 -63.5t-88.5 -47.5t-136.5 -17.5h-282l76 356h272q63 0 107.5 -14t67.5 -38t32.5 -49t9.5 -54zM1382 1594q0 -39 -13.5 -72.5t-44.5 -63.5t-88.5 -47.5t-136.5 -17.5h-282l77 356h270q63 0 108 -14t67.5 -38t32.5 -49t10 -54zM555 1058
q0 -39 -14 -72.5t-44.5 -63.5t-88.5 -47.5t-137 -17.5h-282l77 356h271q63 0 108 -14t67.5 -38t32.5 -49t10 -54zM1285 1058q0 -39 -14 -72.5t-44.5 -63.5t-88.5 -47.5t-137 -17.5h-282l77 356h271q63 0 108 -14t67.5 -38t32.5 -49t10 -54zM2048 1275q0 -84 -66 -142.5
t-217 -58.5h-283l77 357h271q63 0 108 -14t67.5 -38.5t32.5 -49.5t10 -54zM1943 717q0 -39 -14 -72.5t-44.5 -63.5t-88.5 -47.5t-137 -17.5h-282l77 356h271q63 0 108 -14t67.5 -38.5t32.5 -49.5t10 -53zM1179 500q0 -39 -13.5 -72.5t-44 -63.5t-88 -47.5t-136.5 -17.5h-283
l77 356h271q63 0 108 -14t67.5 -38.5t32 -49.5t9.5 -53z" />
<glyph unicode="&#xf8ff;" horiz-adv-x="2048" d="M1003 1595q-10 82 11.5 158.5t65 134t101 101.5t118.5 68.5t118 29.5q18 -111 -35 -227.5t-157 -192.5t-222 -72zM1060 1516q49 0 111.5 26t136.5 52.5t151 26.5q68 0 134.5 -24t112.5 -58.5t82 -69t54 -58.5l17 -24q-10 -5 -26 -15.5t-57 -47.5t-72.5 -80t-57 -114
t-25.5 -149q0 -67 16.5 -127t43 -102t58 -77t63.5 -56.5t58.5 -36.5t43.5 -21l16 -6q-5 -12 -14 -32t-39 -77.5t-61 -110t-78.5 -116.5t-93.5 -110t-103.5 -77.5t-111.5 -31.5q-49 0 -91 13.5t-69 29t-78.5 29t-118.5 13.5q-73 0 -135.5 -21.5t-117.5 -42.5t-108 -21
q-73 0 -155 59t-155 160.5t-133 225.5t-95 266t-35 270q0 131 36 241.5t92.5 182t128 122t141.5 72.5t134 22q60 0 117.5 -16.5t95.5 -36t88.5 -36t98.5 -16.5z" />
<glyph unicode="&#x1f44d;" horiz-adv-x="2048" d="M341 43v1194q0 18 -12.5 30.5t-29.5 12.5h-256q-18 0 -30.5 -12.5t-12.5 -30.5v-1194q0 -18 12.5 -30.5t30.5 -12.5h256q17 0 29.5 12.5t12.5 30.5zM1944 917q47 -25 75.5 -70.5t28.5 -99.5q0 -67 -42.5 -120.5t-106.5 -67.5q21 -42 21 -90q0 -71 -42 -127t-107 -77
q21 -42 21 -94q0 -71 -50 -121t-121 -50h-426q-53 0 -124 15.5t-120 36.5l-439 204v896q153 102 259 187t172.5 156t103 143t49.5 136t13 146q0 53 37.5 90.5t90.5 37.5q36 0 73 -25.5t67 -69.5q74 -102 74 -246q0 -72 -20.5 -164t-40.5 -148t-22 -56q-7 -21 4 -40
q13 -19 36 -19h448q80 0 136 -56t56 -136q0 -54 -29 -100.5t-75 -70.5z" />
<glyph   />
<glyph  horiz-adv-x="682"  />
<glyph   />
<glyph unicode="&#xd;"  />
<glyph unicode=" " horiz-adv-x="512"  />
<glyph unicode="+" horiz-adv-x="1384" d="M1292 510h-515v-510h-170v510h-515v175h515v510h170v-510h515v-175z" />
<glyph unicode="-" horiz-adv-x="1975"  />
<glyph unicode="A" horiz-adv-x="1375" d="M1344 0h-218l-145 429h-595l-154 -429h-204l555 1479h230zM905 607l-218 654l-237 -654h455z" />
<glyph unicode="B" horiz-adv-x="1375" d="M1287 443q0 -132 -64.5 -234.5t-168.5 -155.5t-227 -53h-680v1479h668q165 0 280 -99t119 -275q0 -100 -50 -187.5t-142 -121.5q117 -41 191 -133.5t74 -219.5zM1017 1062q0 122 -62.5 181t-219.5 63h-384v-455h389q139 0 206 60.5t71 150.5zM1088 417q0 66 -14 111.5
t-50.5 82.5t-105 56t-171.5 20h-396v-519h462q69 0 123 23t85.5 60.5t48 79.5t18.5 86z" />
<glyph unicode="C" horiz-adv-x="1489" d="M1403 543q-11 -96 -44.5 -183t-89 -160t-128 -126.5t-167 -83.5t-201.5 -30q-150 0 -270.5 49t-196.5 127.5t-127.5 184t-72.5 212t-21 218.5q0 116 27 225t82.5 206t135 170.5t191 118t242.5 48.5q57 0 115.5 -9t125.5 -28.5t127.5 -57t113 -89t90.5 -129.5t52 -173
h-195q-29 147 -137.5 225.5t-262.5 78.5q-105 0 -189 -31t-140.5 -84t-94 -128.5t-55 -160t-19.5 -182.5q2 -91 19 -177t53 -166t87.5 -139.5t128 -95.5t169.5 -36q193 0 310 107t146 299h196z" />
<glyph unicode="D" horiz-adv-x="1489" d="M1384 792q0 -125 -24.5 -240.5t-74 -215t-119 -173.5t-166 -117.5t-208.5 -45.5h-628v1479h621q77 0 155.5 -22t157.5 -74.5t140 -129t101.5 -196t44.5 -265.5zM1178 775q0 85 -13.5 160.5t-45.5 144t-79.5 118t-120 79t-163.5 29.5h-389v-1138h413q119 0 210.5 81
t139.5 218t48 308z" />
<glyph unicode="E" horiz-adv-x="1375" d="M1266 0h-1093v1479h1081v-180h-879v-450h810v-178h-810v-493h891v-178z" />
<glyph unicode="F" horiz-adv-x="1256" d="M1197 1299h-822v-450h725v-178h-725v-671h-202v1479h1024v-180z" />
<glyph unicode="G" horiz-adv-x="1598" d="M1446 0h-128l-47 197q-70 -98 -200 -161.5t-286 -68.5q-146 0 -262 39t-195 108.5t-131.5 168.5t-76 215t-23.5 253q0 112 26.5 219.5t83.5 205t137.5 171t197 118t254.5 45.5q113 0 217.5 -31t190.5 -90t144.5 -152t73.5 -208h-192q-27 109 -95 180t-154 99.5t-194 28.5
q-212 0 -349 -161.5t-137 -435.5q0 -295 134 -454.5t352 -159.5q173 0 310 106q91 74 125.5 158.5t38.5 225.5h-460v171h645v-787z" />
<glyph unicode="H" horiz-adv-x="1489" d="M1332 0h-201v687h-773v-687h-202v1479h202v-614h773v614h201v-1479z" />
<glyph unicode="I" horiz-adv-x="569" d="M386 0h-201v1479h201v-1479z" />
<glyph unicode="J" horiz-adv-x="1029" d="M882 398q0 -117 -33.5 -203t-93.5 -136t-134.5 -73.5t-165.5 -25.5q-93 0 -167 23t-121 60t-78 86.5t-43.5 99t-12.5 100.5v145h187v-104q0 -123 54.5 -181.5t168.5 -58.5q122 0 177.5 62t57.5 194v1093h204v-1081z" />
<glyph unicode="K" horiz-adv-x="1375" d="M1363 0h-258l-520 740l-232 -221v-519h-201v1479h201v-720l718 720h275l-616 -597z" />
<glyph unicode="L" horiz-adv-x="1147" d="M1105 0h-953v1479h201v-1301h752v-178z" />
<glyph unicode="M" horiz-adv-x="1711" d="M1567 0h-197v1242l-412 -1242h-199l-422 1240v-1240h-190v1479h287l426 -1254l422 1254h285v-1479z" />
<glyph unicode="N" horiz-adv-x="1489" d="M1332 0h-227l-754 1192v-1192h-195v1479h237l745 -1197v1197h194v-1479z" />
<glyph unicode="O" horiz-adv-x="1598" d="M1519 740q0 -56 -5.5 -112t-23.5 -134.5t-48 -146.5t-85 -138.5t-127.5 -121t-182.5 -83.5t-243 -35q-145 0 -265.5 43t-203 116.5t-140 172.5t-84 209.5t-26.5 229.5q0 124 27 236t85 209t141.5 168.5t202.5 113t263 43.5q113 0 211 -25.5t169.5 -69.5t129.5 -105
t95.5 -129.5t63 -145t36 -149.5t10.5 -146zM1318 740q0 264 -136.5 426t-377.5 166q-230 0 -372.5 -160.5t-142.5 -431.5q0 -267 138 -428t377 -165q241 0 377.5 162.5t136.5 430.5z" />
<glyph unicode="P" horiz-adv-x="1375" d="M1278 1062q0 -66 -14 -126t-47 -117t-82.5 -99t-125.5 -68.5t-170 -28.5h-464v-623h-202v1479h666q188 0 311 -109t128 -308zM1071 1062q0 244 -291 244h-405v-514h398q295 0 298 270z" />
<glyph unicode="Q" horiz-adv-x="1598" d="M1519 740q0 -358 -215 -569l201 -157l-97 -121l-228 178q-155 -102 -379 -102q-145 0 -265.5 43t-203.5 116.5t-140.5 172.5t-84 209.5t-26.5 229.5q0 124 27 236t85 209t141.5 168.5t203 113t263.5 43.5q113 0 210.5 -25.5t169.5 -69.5t130 -105t96.5 -129.5t64 -145
t36.5 -149.5t11 -146zM1313 740q0 264 -135.5 426t-376.5 166q-231 0 -372.5 -160t-141.5 -432q0 -268 137 -428.5t377 -164.5q119 0 216 47l-154 117l102 125l189 -144q159 165 159 448z" />
<glyph unicode="R" horiz-adv-x="1489" d="M1384 0h-225q-26 57 -37.5 150t-15 186.5t-6.5 113.5q-26 178 -242 181h-502v-631h-202v1479h709q89 0 169 -24t146 -71.5t106 -128t43 -184.5q0 -230 -215 -343q79 -25 126 -87t56 -153q6 -56 12.5 -157t14.5 -165.5t25 -106.5q18 -42 38 -59zM1124 1052
q0 112 -58.5 181t-186.5 73h-523v-502h507q112 0 186.5 69t74.5 179z" />
<glyph unicode="S" horiz-adv-x="1375" d="M1273 415q0 -145 -76.5 -247.5t-204.5 -150.5t-297 -48q-284 0 -438 127t-155 392h185q0 -78 24 -139t62.5 -98.5t93.5 -62.5t109.5 -35.5t118.5 -12.5q59 0 112 7.5t104 25.5t88 45.5t59.5 71t22.5 99.5q0 39 -8.5 69.5t-24.5 54t-44.5 42.5t-64 34t-88 29.5t-110.5 28
t-138 31.5q-36 8 -55 12q-67 15 -119.5 32.5t-106.5 47.5t-90 67.5t-59.5 94t-25.5 125.5q0 92 30 171.5t90 143.5t161 101t231 37q111 0 201.5 -21t148 -51t101.5 -77.5t65.5 -84.5t36 -89.5t17 -75.5t5.5 -58q1 -9 1 -12h-185q0 63 -21.5 114t-57 84.5t-85 56.5
t-100.5 33.5t-108 12.5q-51 0 -96 -6.5t-90.5 -24.5t-77.5 -46.5t-52.5 -75.5t-20.5 -108q0 -141 178 -180l422 -97q332 -74 332 -389z" />
<glyph unicode="T" horiz-adv-x="1256" d="M1230 1299h-502v-1299h-202v1299h-498v180h1202v-180z" />
<glyph unicode="U" horiz-adv-x="1489" d="M1327 486q0 -105 -35.5 -195.5t-106 -162t-187 -113.5t-268.5 -43q-282 0 -423.5 130.5t-145.5 373.5v1003h202v-965q0 -171 95 -269t272 -98q180 0 285.5 94.5t110.5 268.5v969h201v-993z" />
<glyph unicode="V" horiz-adv-x="1375" d="M1330 1479l-538 -1479h-214l-538 1479h233l419 -1263l436 1263h202z" />
<glyph unicode="W" horiz-adv-x="1941" d="M1911 1479l-392 -1479h-208l-337 1225l-346 -1225h-211l-384 1479h216l272 -1206l339 1206h216l339 -1206l273 1206h223z" />
<glyph unicode="X" horiz-adv-x="1375" d="M1332 0h-249l-396 607l-410 -607h-239l529 759l-498 720h251l375 -566l376 566h240l-496 -723z" />
<glyph unicode="Y" horiz-adv-x="1375" d="M1342 1479l-557 -889v-590h-200v590l-554 889h242l422 -711l424 711h223z" />
<glyph unicode="Z" horiz-adv-x="1256" d="M1209 0h-1162v164l906 1137h-839v178h1095v-173l-910 -1126h910v-180z" />
<glyph unicode="a" horiz-adv-x="1147" d="M1093 2v-2q-57 -21 -119 -21q-168 0 -173 161q-154 -166 -389 -173q-151 0 -246 89t-95 214q0 60 15.5 109t39.5 82.5t64 60.5t76.5 42.5t91 29.5t93.5 20.5t98 16.5t91 16q82 14 117 50.5t35 79.5q0 83 -63.5 133t-185.5 50q-110 0 -176.5 -53t-70.5 -160h-168
q0 147 111.5 250.5t327.5 107.5q106 0 195.5 -32.5t150.5 -106.5t61 -179v-576q0 -60 22.5 -82t96.5 4v-131zM787 358v194q-29 -19 -84 -34t-111.5 -23.5t-117.5 -25t-108 -37.5t-77.5 -62t-30.5 -97q0 -78 52 -118.5t140 -40.5q51 0 109 17t109.5 47t85 77.5t33.5 102.5z
" />
<glyph unicode="b" horiz-adv-x="1147" d="M1088 569q3 -85 -10.5 -166.5t-48 -161.5t-88 -140t-138.5 -97t-191 -37q-104 0 -187.5 42.5t-130.5 123.5l-14 -133h-164v1479h185v-538q59 78 138.5 119t191.5 45q197 0 323.5 -149.5t133.5 -386.5zM898 538q0 198 -79 301.5t-222 103.5q-82 0 -143.5 -38.5t-95 -100.5
t-49 -128.5t-15.5 -135.5q0 -404 313 -414q140 0 215.5 112.5t75.5 299.5z" />
<glyph unicode="c" horiz-adv-x="1029" d="M991 379q-12 -111 -57 -194t-111 -129t-138 -67.5t-149 -21.5q-203 0 -340 158.5t-137 412.5q0 140 39.5 251t107 179t153.5 103.5t184 35.5q62 0 119.5 -11.5t114.5 -40t100.5 -71.5t74.5 -112t39 -156h-173q-10 106 -83.5 166.5t-184.5 60.5q-63 0 -114.5 -21t-94 -66
t-66.5 -126t-24 -192q0 -170 85 -287.5t214 -117.5q109 0 176.5 62t88.5 184h176z" />
<glyph unicode="d" horiz-adv-x="1147" d="M64 569q7 237 133.5 386.5t323.5 149.5q113 -4 191.5 -45t138.5 -119v538h185v-1479h-164v152q-48 -82 -139.5 -133.5t-192.5 -51.5q-106 0 -191 37t-138.5 97t-88 140t-48 161.5t-10.5 166.5zM254 538q0 -187 75.5 -299.5t215.5 -112.5q313 10 313 414q0 69 -15.5 135.5
t-48.5 128.5t-94.5 100.5t-144.5 38.5q-143 0 -222 -103.5t-79 -301.5z" />
<glyph unicode="e" horiz-adv-x="1147" d="M1074 476h-804q0 -150 91.5 -246.5t226.5 -96.5q68 0 125 22t91 54.5t52.5 66.5t18.5 61h185q-30 -172 -161 -270t-321 -98q-114 0 -209 42.5t-157 116t-97 171t-37 208.5q0 270 139.5 436t365.5 166q160 0 273.5 -81.5t168 -223.5t49.5 -328zM884 623q0 144 -87 234.5
t-212 90.5q-128 0 -219 -95.5t-96 -229.5h614z" />
<glyph unicode="f" horiz-adv-x="569" d="M538 1493v-149q-31 5 -76 5q-54 0 -76.5 -25t-22.5 -84v-164h175v-163h-175v-913h-185v913h-150v163h150v199q0 98 73.5 164t191.5 66q55 0 95 -12z" />
<glyph unicode="g" horiz-adv-x="1228" d="M1086 47q0 -262 -128 -390.5t-358 -128.5q-33 0 -66 3t-75 12.5t-79.5 24.5t-74.5 41.5t-63.5 61t-43.5 85t-18 111.5h180q0 -80 68 -125t160 -45q150 0 233.5 83t83.5 253v64q-65 -70 -145.5 -99t-183.5 -29q-84 0 -166.5 36.5t-151 103t-112 171.5t-46.5 230
q0 277 139.5 436t362.5 159q98 0 180 -42t123 -110v130h181v-1036zM905 536q0 180 -82.5 283t-227.5 103q-56 0 -109 -23t-97 -67t-70.5 -116.5t-26.5 -163.5q0 -106 26.5 -189.5t71.5 -132.5t99 -74.5t113 -25.5q132 0 216 107.5t87 298.5z" />
<glyph unicode="h" horiz-adv-x="1147" d="M1012 0h-185v704q0 117 -50 178t-161 61q-61 0 -113.5 -21t-96 -62.5t-68.5 -112t-25 -162.5v-585h-185v1479h185v-547q55 85 147 128t187 47q55 0 104 -10.5t98 -38t84 -70.5t57 -112.5t22 -159.5v-716z" />
<glyph unicode="i" horiz-adv-x="460" d="M318 1271h-185v203h185v-203zM318 0h-185v1076h185v-1076z" />
<glyph unicode="j" horiz-adv-x="543" d="M405 -185q0 -106 -70 -175t-200 -69q-59 0 -92 7v157q41 -10 83 -10q51 0 72.5 29t21.5 101v1221h185v-1261zM405 1271h-185v208h185v-208z" />
<glyph unicode="k" horiz-adv-x="1029" d="M1029 0h-230l-356 526l-130 -128v-398h-185v1479h185v-860l460 457h232l-429 -412z" />
<glyph unicode="l" horiz-adv-x="460" d="M320 0h-187v1479h187v-1479z" />
<glyph unicode="m" horiz-adv-x="1711" d="M1586 0h-185v695q0 248 -199 248q-108 0 -177 -78t-74 -211v-654h-185v742q0 84 -42 142.5t-131 58.5q-53 0 -99.5 -18.5t-87 -58t-65 -112t-26.5 -169.5v-585h-185v1076h171v-152q57 89 144 135t186 46q113 0 179.5 -46t109.5 -127q46 72 131 122.5t198 50.5
q42 0 84 -8.5t89 -33.5t82 -63.5t58.5 -105t23.5 -152.5v-742z" />
<glyph unicode="n" horiz-adv-x="1147" d="M1012 0h-185v673q0 61 -10 107.5t-33 84.5t-65.5 58t-102.5 20q-130 0 -216.5 -88.5t-86.5 -240.5v-614h-185v1076h175v-156q15 24 43.5 52.5t72 60t104 52t124.5 20.5q166 0 265.5 -96t99.5 -293v-716z" />
<glyph unicode="o" horiz-adv-x="1147" d="M1081 538q0 -112 -34.5 -213t-97.5 -179.5t-159.5 -126t-213.5 -50.5q-94 0 -175 30.5t-140.5 84t-102 125t-64 155.5t-21.5 174q0 155 58 283t174 207t271 79t271.5 -79t175 -207t58.5 -283zM891 538q1 68 -16.5 136t-53.5 129.5t-100 101t-145 41.5q-80 0 -143 -39
t-98.5 -101.5t-53.5 -131t-18 -136.5q0 -81 18 -152.5t54 -130.5t98 -93t143 -34q82 0 143.5 34t97 93.5t53.5 129.5t21 153z" />
<glyph unicode="p" horiz-adv-x="1147" d="M1090 507q-7 -237 -134 -386t-325 -149q-112 3 -190 44t-138 119v-562h-187v1503h166v-152q48 82 139.5 133.5t192.5 51.5q106 0 191 -37t138.5 -97t88.5 -140t48 -161.5t10 -166.5zM901 538q0 187 -76 300t-216 113q-160 -6 -236.5 -114t-76.5 -301q0 -69 15.5 -135
t48.5 -128.5t95 -101t145 -38.5q143 0 222 103.5t79 301.5z" />
<glyph unicode="q" horiz-adv-x="1147" d="M45 507q0 85 14 166t48.5 161.5t87 140t136.5 97t190 37.5q103 0 186 -42.5t130 -123.5l16 133h166v-1503h-185v562q-62 -78 -140 -119t-189 -44q-201 0 -328 143.5t-132 391.5zM235 538q0 -198 80 -301.5t223 -103.5q66 0 119 26t86.5 67t55.5 95.5t31 107.5t9 107
q0 404 -313 415q-140 0 -215.5 -113t-75.5 -300z" />
<glyph unicode="r" horiz-adv-x="683" d="M609 913q-154 0 -250 -71.5t-96 -196.5v-645h-185v1076h178v-182q94 206 353 206v-187z" />
<glyph unicode="s" horiz-adv-x="1029" d="M960 325q0 -155 -113.5 -256.5t-310.5 -101.5q-97 0 -176 20.5t-142.5 64.5t-101.5 118.5t-45 175.5h178q0 -220 287 -220q101 0 172.5 43t71.5 125q0 44 -23 70t-102 55t-247 69q-48 12 -81.5 22.5t-78 32.5t-72 49t-47.5 71.5t-20 99.5q0 163 114.5 253.5t293.5 90.5
q99 0 175.5 -26t118.5 -63t69.5 -86.5t36 -87.5t10.5 -76h-176q0 88 -64 134t-189 46q-15 0 -30 -1t-42 -5.5t-49 -14.5t-44.5 -26t-35.5 -43t-15 -62q0 -66 62.5 -95.5t267.5 -78.5q23 -5 35 -8q55 -15 95.5 -30t83.5 -39t70 -53t45 -71.5t19 -95.5z" />
<glyph unicode="t" horiz-adv-x="569" d="M538 128v-152q-57 -12 -95 -12q-118 0 -191.5 67t-73.5 163v719h-140v163h140v304h185v-304h175v-163h-175v-681q0 -59 22.5 -85t76.5 -26q33 0 76 7z" />
<glyph unicode="u" horiz-adv-x="1147" d="M116 1076h187v-673q0 -61 10 -107.5t33 -84.5t65.5 -58t102.5 -20q129 0 216.5 89t87.5 240v614h185v-1076h-178v156q-14 -24 -43 -52.5t-72 -59.5t-104 -51.5t-125 -20.5q-166 0 -265.5 95.5t-99.5 292.5v716z" />
<glyph unicode="v" horiz-adv-x="1029" d="M988 1076l-410 -1076h-194l-391 1076h206l294 -882l301 882h194z" />
<glyph unicode="w" horiz-adv-x="1489" d="M1458 1076l-311 -1076h-189l-216 832l-216 -832h-189l-309 1076h197l204 -848l220 848h202l211 -848l216 848h180z" />
<glyph unicode="x" horiz-adv-x="1029" d="M1007 0h-232l-265 405l-261 -405h-228l380 555l-361 521h233l248 -381l252 381h218l-363 -524z" />
<glyph unicode="y" horiz-adv-x="1029" d="M1007 1076q-166 -472 -314.5 -865.5t-182.5 -461.5q-66 -133 -149 -171.5t-235 -4.5v166q35 -13 63.5 -18.5t60 -3t58 22t45.5 56.5l74 171l-403 1109h204l293 -879l292 879h194z" />
<glyph unicode="z" horiz-adv-x="1029" d="M965 0h-901v140l647 784h-597v152h829v-149l-642 -780h664v-147z" />
</font>
</defs>
</svg>
